<svg width="40" height="55" viewBox="0 0 40 55" fill="none" xmlns="http://www.w3.org/2000/svg">
<circle cx="19" cy="18" r="18" fill="#F2994A"/>
<path d="M28.17 8.06C27.4532 7.93653 26.7274 7.87298 26 7.87C23.5184 7.86796 21.0885 8.57957 19 9.92C16.9062 8.59717 14.4767 7.90303 12 7.92C11.2727 7.92298 10.5468 7.98653 9.83002 8.11C9.59523 8.15048 9.3826 8.27346 9.23044 8.45679C9.07827 8.64013 8.99656 8.87177 9.00002 9.11V21.11C8.99788 21.2569 9.02815 21.4025 9.08867 21.5364C9.1492 21.6703 9.23849 21.7893 9.3502 21.8847C9.4619 21.9802 9.59328 22.0499 9.73498 22.0888C9.87668 22.1278 10.0252 22.135 10.17 22.11C11.603 21.8619 13.0712 21.9031 14.4881 22.2311C15.905 22.5591 17.2418 23.1674 18.42 24.02L18.54 24.09H18.65C18.7609 24.1362 18.8799 24.16 19 24.16C19.1202 24.16 19.2391 24.1362 19.35 24.09H19.46L19.58 24.02C20.75 23.1483 22.083 22.5203 23.5002 22.1734C24.9173 21.8264 26.3897 21.7674 27.83 22C27.9748 22.025 28.1234 22.0178 28.2651 21.9788C28.4068 21.9399 28.5381 21.8702 28.6498 21.7747C28.7616 21.6793 28.8508 21.5603 28.9114 21.4264C28.9719 21.2925 29.0022 21.1469 29 21V9C28.9896 8.77215 28.9016 8.55471 28.7507 8.38374C28.5997 8.21276 28.3948 8.09854 28.17 8.06ZM18 21.35C16.1499 20.3767 14.0905 19.8687 12 19.87H11V9.87C11.3331 9.8508 11.667 9.8508 12 9.87C14.1334 9.86764 16.2202 10.4937 18 11.67V21.35ZM27 19.91H26C23.9095 19.9087 21.8501 20.4167 20 21.39V11.67C21.7798 10.4937 23.8666 9.86764 26 9.87C26.3331 9.8508 26.667 9.8508 27 9.87V19.91ZM28.17 24.06C27.4532 23.9365 26.7274 23.873 26 23.87C23.5184 23.868 21.0885 24.5796 19 25.92C16.9115 24.5796 14.4817 23.868 12 23.87C11.2727 23.873 10.5468 23.9365 9.83002 24.06C9.69985 24.0807 9.57505 24.1268 9.46279 24.1959C9.35053 24.265 9.25302 24.3555 9.17589 24.4624C9.09876 24.5693 9.04351 24.6903 9.01333 24.8186C8.98315 24.9469 8.97862 25.0799 9.00002 25.21C9.05084 25.4697 9.20251 25.6986 9.42181 25.8467C9.64111 25.9948 9.91016 26.0499 10.17 26C11.603 25.7519 13.0712 25.7931 14.4881 26.1211C15.905 26.4491 17.2418 27.0574 18.42 27.91C18.5894 28.0306 18.7921 28.0954 19 28.0954C19.2079 28.0954 19.4107 28.0306 19.58 27.91C20.7582 27.0574 22.0951 26.4491 23.512 26.1211C24.9288 25.7931 26.397 25.7519 27.83 26C28.0899 26.0499 28.3589 25.9948 28.5782 25.8467C28.7975 25.6986 28.9492 25.4697 29 25.21C29.0214 25.0799 29.0169 24.9469 28.9867 24.8186C28.9565 24.6903 28.9013 24.5693 28.8242 24.4624C28.747 24.3555 28.6495 24.265 28.5373 24.1959C28.425 24.1268 28.3002 24.0807 28.17 24.06Z" fill="white"/>
<path d="M1.45695 52V44.128H5.99295V44.968H2.45295V47.44H5.44095V48.292H2.45295V51.148H6.11295V52H1.45695ZM9.56389 52.144C8.82789 52.144 8.23989 51.88 7.79989 51.352C7.36789 50.824 7.15189 50.072 7.15189 49.096C7.15189 48.624 7.21989 48.2 7.35589 47.824C7.49989 47.44 7.68789 47.116 7.91989 46.852C8.15189 46.588 8.41989 46.384 8.72389 46.24C9.02789 46.096 9.34789 46.024 9.68389 46.024C10.0199 46.024 10.3119 46.084 10.5599 46.204C10.8079 46.324 11.0599 46.488 11.3159 46.696L11.2679 45.7V43.456H12.2639V52H11.4479L11.3639 51.316H11.3279C11.0959 51.54 10.8279 51.736 10.5239 51.904C10.2279 52.064 9.90789 52.144 9.56389 52.144ZM9.77989 51.316C10.0519 51.316 10.3079 51.252 10.5479 51.124C10.7879 50.988 11.0279 50.784 11.2679 50.512V47.464C11.0199 47.24 10.7799 47.084 10.5479 46.996C10.3239 46.9 10.0919 46.852 9.85189 46.852C9.61989 46.852 9.39989 46.908 9.19189 47.02C8.99189 47.124 8.81589 47.276 8.66389 47.476C8.51189 47.668 8.39189 47.9 8.30389 48.172C8.21589 48.444 8.17189 48.748 8.17189 49.084C8.17189 49.788 8.31189 50.336 8.59189 50.728C8.87189 51.12 9.26789 51.316 9.77989 51.316ZM15.9321 52.144C15.3081 52.144 14.8521 51.952 14.5641 51.568C14.2841 51.184 14.1441 50.616 14.1441 49.864V46.168H15.1401V49.732C15.1401 50.284 15.2241 50.684 15.3921 50.932C15.5681 51.172 15.8481 51.292 16.2321 51.292C16.5361 51.292 16.8041 51.216 17.0361 51.064C17.2681 50.904 17.5241 50.652 17.8041 50.308V46.168H18.7881V52H17.9721L17.8881 51.088H17.8521C17.5801 51.408 17.2921 51.664 16.9881 51.856C16.6921 52.048 16.3401 52.144 15.9321 52.144ZM20.7555 52V43.456H21.7275V49.24H21.7635L24.2475 46.168H25.3395L23.3835 48.508L25.6035 52H24.5235L22.8195 49.192L21.7275 50.464V52H20.7555ZM27.9237 52.144C27.4357 52.144 27.0277 52 26.6997 51.712C26.3797 51.424 26.2197 51.016 26.2197 50.488C26.2197 49.848 26.5037 49.36 27.0717 49.024C27.6397 48.68 28.5477 48.44 29.7957 48.304C29.7957 48.12 29.7757 47.94 29.7357 47.764C29.7037 47.588 29.6437 47.432 29.5557 47.296C29.4677 47.16 29.3437 47.052 29.1837 46.972C29.0317 46.884 28.8357 46.84 28.5957 46.84C28.2597 46.84 27.9437 46.904 27.6477 47.032C27.3517 47.16 27.0877 47.304 26.8557 47.464L26.4717 46.78C26.7437 46.604 27.0757 46.436 27.4677 46.276C27.8597 46.108 28.2917 46.024 28.7637 46.024C29.4757 46.024 29.9917 46.244 30.3117 46.684C30.6317 47.116 30.7917 47.696 30.7917 48.424V52H29.9757L29.8917 51.304H29.8557C29.5757 51.536 29.2757 51.736 28.9557 51.904C28.6357 52.064 28.2917 52.144 27.9237 52.144ZM28.2117 51.352C28.4917 51.352 28.7557 51.288 29.0037 51.16C29.2517 51.024 29.5157 50.828 29.7957 50.572V48.952C29.3077 49.016 28.8957 49.092 28.5597 49.18C28.2317 49.268 27.9637 49.372 27.7557 49.492C27.5557 49.612 27.4077 49.752 27.3117 49.912C27.2237 50.064 27.1797 50.232 27.1797 50.416C27.1797 50.752 27.2797 50.992 27.4797 51.136C27.6797 51.28 27.9237 51.352 28.2117 51.352ZM34.1506 52.144C33.7346 52.144 33.3386 52.068 32.9626 51.916C32.5866 51.764 32.2586 51.572 31.9786 51.34L32.4706 50.68C32.7266 50.888 32.9866 51.056 33.2506 51.184C33.5226 51.312 33.8346 51.376 34.1866 51.376C34.5706 51.376 34.8586 51.288 35.0506 51.112C35.2426 50.936 35.3386 50.72 35.3386 50.464C35.3386 50.312 35.2986 50.18 35.2186 50.068C35.1386 49.956 35.0346 49.86 34.9066 49.78C34.7866 49.692 34.6466 49.616 34.4866 49.552C34.3266 49.488 34.1666 49.424 34.0066 49.36C33.7986 49.288 33.5906 49.208 33.3826 49.12C33.1746 49.024 32.9866 48.912 32.8186 48.784C32.6586 48.648 32.5266 48.492 32.4226 48.316C32.3186 48.14 32.2666 47.928 32.2666 47.68C32.2666 47.448 32.3106 47.232 32.3986 47.032C32.4946 46.824 32.6266 46.648 32.7946 46.504C32.9706 46.352 33.1826 46.236 33.4306 46.156C33.6786 46.068 33.9586 46.024 34.2706 46.024C34.6386 46.024 34.9746 46.088 35.2786 46.216C35.5906 46.344 35.8586 46.5 36.0826 46.684L35.6146 47.308C35.4146 47.156 35.2066 47.032 34.9906 46.936C34.7746 46.84 34.5386 46.792 34.2826 46.792C33.9146 46.792 33.6426 46.876 33.4666 47.044C33.2986 47.212 33.2146 47.408 33.2146 47.632C33.2146 47.768 33.2506 47.888 33.3226 47.992C33.3946 48.088 33.4906 48.176 33.6106 48.256C33.7306 48.328 33.8666 48.396 34.0186 48.46C34.1786 48.516 34.3426 48.576 34.5106 48.64C34.7186 48.72 34.9266 48.804 35.1346 48.892C35.3506 48.98 35.5426 49.092 35.7106 49.228C35.8786 49.356 36.0146 49.516 36.1186 49.708C36.2306 49.9 36.2866 50.132 36.2866 50.404C36.2866 50.644 36.2386 50.868 36.1426 51.076C36.0546 51.284 35.9186 51.468 35.7346 51.628C35.5586 51.788 35.3346 51.912 35.0626 52C34.7986 52.096 34.4946 52.144 34.1506 52.144ZM37.6539 52V46.168H38.6379V52H37.6539ZM38.1579 44.968C37.9659 44.968 37.8019 44.908 37.6659 44.788C37.5379 44.668 37.4739 44.516 37.4739 44.332C37.4739 44.14 37.5379 43.988 37.6659 43.876C37.8019 43.756 37.9659 43.696 38.1579 43.696C38.3499 43.696 38.5099 43.756 38.6379 43.876C38.7739 43.988 38.8419 44.14 38.8419 44.332C38.8419 44.516 38.7739 44.668 38.6379 44.788C38.5099 44.908 38.3499 44.968 38.1579 44.968Z" fill="#828282"/>
</svg>
