<svg width="41" height="55" viewBox="0 0 41 55" fill="none" xmlns="http://www.w3.org/2000/svg">
<circle cx="20" cy="18" r="18" fill="#2F80ED"/>
<path d="M27 8H13C12.2044 8 11.4413 8.31607 10.8787 8.87868C10.3161 9.44129 10 10.2044 10 11V25C10 25.7956 10.3161 26.5587 10.8787 27.1213C11.4413 27.6839 12.2044 28 13 28H27C27.7956 28 28.5587 27.6839 29.1213 27.1213C29.6839 26.5587 30 25.7956 30 25V11C30 10.2044 29.6839 9.44129 29.1213 8.87868C28.5587 8.31607 27.7956 8 27 8ZM24.09 10L20.09 14H15.91L19.91 10H24.09ZM12 11C12 10.7348 12.1054 10.4804 12.2929 10.2929C12.4804 10.1054 12.7348 10 13 10H17.09L13.09 14H12V11ZM28 25C28 25.2652 27.8946 25.5196 27.7071 25.7071C27.5196 25.8946 27.2652 26 27 26H13C12.7348 26 12.4804 25.8946 12.2929 25.7071C12.1054 25.5196 12 25.2652 12 25V16H28V25ZM28 14H22.91L26.91 10H27C27.2652 10 27.5196 10.1054 27.7071 10.2929C27.8946 10.4804 28 10.7348 28 11V14Z" fill="white"/>
<path d="M1.37102 52V44.128H2.36702V47.428H6.02702V44.128H7.03502V52H6.02702V48.292H2.36702V52H1.37102ZM9.10314 52V46.168H10.0871V52H9.10314ZM9.60714 44.968C9.41514 44.968 9.25114 44.908 9.11514 44.788C8.98714 44.668 8.92314 44.516 8.92314 44.332C8.92314 44.14 8.98714 43.988 9.11514 43.876C9.25114 43.756 9.41514 43.696 9.60714 43.696C9.79914 43.696 9.95914 43.756 10.0871 43.876C10.2231 43.988 10.2911 44.14 10.2911 44.332C10.2911 44.516 10.2231 44.668 10.0871 44.788C9.95914 44.908 9.79914 44.968 9.60714 44.968ZM14.6363 52.144C14.3643 52.144 14.0803 52.08 13.7843 51.952C13.4963 51.816 13.2243 51.632 12.9683 51.4H12.9323L12.8483 52H12.0563V43.456H13.0403V45.784L13.0163 46.84C13.2803 46.608 13.5683 46.416 13.8803 46.264C14.1923 46.104 14.5123 46.024 14.8403 46.024C15.2163 46.024 15.5483 46.096 15.8363 46.24C16.1243 46.376 16.3643 46.576 16.5563 46.84C16.7563 47.096 16.9043 47.408 17.0003 47.776C17.1043 48.136 17.1563 48.54 17.1563 48.988C17.1563 49.484 17.0883 49.928 16.9523 50.32C16.8163 50.712 16.6323 51.044 16.4003 51.316C16.1683 51.588 15.9003 51.796 15.5963 51.94C15.2923 52.076 14.9723 52.144 14.6363 52.144ZM14.4683 51.316C14.7083 51.316 14.9283 51.264 15.1283 51.16C15.3363 51.048 15.5123 50.896 15.6563 50.704C15.8083 50.504 15.9243 50.26 16.0043 49.972C16.0923 49.684 16.1363 49.36 16.1363 49C16.1363 48.68 16.1083 48.388 16.0523 48.124C15.9963 47.86 15.9043 47.636 15.7763 47.452C15.6563 47.26 15.4963 47.112 15.2963 47.008C15.1043 46.904 14.8723 46.852 14.6003 46.852C14.1283 46.852 13.6083 47.116 13.0403 47.644V50.704C13.2963 50.928 13.5483 51.088 13.7963 51.184C14.0523 51.272 14.2763 51.316 14.4683 51.316ZM20.3931 52.144C19.7691 52.144 19.3131 51.952 19.0251 51.568C18.7451 51.184 18.6051 50.616 18.6051 49.864V46.168H19.6011V49.732C19.6011 50.284 19.6851 50.684 19.8531 50.932C20.0291 51.172 20.3091 51.292 20.6931 51.292C20.9971 51.292 21.2651 51.216 21.4971 51.064C21.7291 50.904 21.9851 50.652 22.2651 50.308V46.168H23.2491V52H22.4331L22.3491 51.088H22.3131C22.0411 51.408 21.7531 51.664 21.4491 51.856C21.1531 52.048 20.8011 52.144 20.3931 52.144ZM25.2164 52V46.168H26.0324L26.1164 47.224H26.1524C26.3524 46.856 26.5924 46.564 26.8724 46.348C27.1604 46.132 27.4724 46.024 27.8084 46.024C28.0404 46.024 28.2484 46.064 28.4324 46.144L28.2404 47.008C28.1444 46.976 28.0564 46.952 27.9764 46.936C27.8964 46.92 27.7964 46.912 27.6764 46.912C27.4284 46.912 27.1684 47.012 26.8964 47.212C26.6324 47.412 26.4004 47.76 26.2004 48.256V52H25.2164ZM30.4276 52.144C29.9396 52.144 29.5316 52 29.2036 51.712C28.8836 51.424 28.7236 51.016 28.7236 50.488C28.7236 49.848 29.0076 49.36 29.5756 49.024C30.1436 48.68 31.0516 48.44 32.2996 48.304C32.2996 48.12 32.2796 47.94 32.2396 47.764C32.2076 47.588 32.1476 47.432 32.0596 47.296C31.9716 47.16 31.8476 47.052 31.6876 46.972C31.5356 46.884 31.3396 46.84 31.0996 46.84C30.7636 46.84 30.4476 46.904 30.1516 47.032C29.8556 47.16 29.5916 47.304 29.3596 47.464L28.9756 46.78C29.2476 46.604 29.5796 46.436 29.9716 46.276C30.3636 46.108 30.7956 46.024 31.2676 46.024C31.9796 46.024 32.4956 46.244 32.8156 46.684C33.1356 47.116 33.2956 47.696 33.2956 48.424V52H32.4796L32.3956 51.304H32.3596C32.0796 51.536 31.7796 51.736 31.4596 51.904C31.1396 52.064 30.7956 52.144 30.4276 52.144ZM30.7156 51.352C30.9956 51.352 31.2596 51.288 31.5076 51.16C31.7556 51.024 32.0196 50.828 32.2996 50.572V48.952C31.8116 49.016 31.3996 49.092 31.0636 49.18C30.7356 49.268 30.4676 49.372 30.2596 49.492C30.0596 49.612 29.9116 49.752 29.8156 49.912C29.7276 50.064 29.6836 50.232 29.6836 50.416C29.6836 50.752 29.7836 50.992 29.9836 51.136C30.1836 51.28 30.4276 51.352 30.7156 51.352ZM35.1305 52V46.168H35.9465L36.0305 47.008H36.0665C36.3465 46.728 36.6385 46.496 36.9425 46.312C37.2545 46.12 37.6145 46.024 38.0225 46.024C38.6385 46.024 39.0865 46.216 39.3665 46.6C39.6545 46.984 39.7985 47.552 39.7985 48.304V52H38.8145V48.436C38.8145 47.884 38.7265 47.488 38.5505 47.248C38.3745 47 38.0945 46.876 37.7105 46.876C37.4065 46.876 37.1385 46.952 36.9065 47.104C36.6745 47.256 36.4105 47.48 36.1145 47.776V52H35.1305Z" fill="#828282"/>
</svg>
