<svg width="46" height="55" viewBox="0 0 46 55" fill="none" xmlns="http://www.w3.org/2000/svg">
<circle cx="25" cy="18" r="18" fill="#F2C94C"/>
<path d="M22.51 18.48C22.3122 18.48 22.1189 18.5387 21.9545 18.6485C21.79 18.7584 21.6618 18.9146 21.5861 19.0973C21.5105 19.2801 21.4907 19.4811 21.5292 19.6751C21.5678 19.8691 21.6631 20.0473 21.8029 20.1871C21.9428 20.327 22.121 20.4222 22.3149 20.4608C22.5089 20.4994 22.71 20.4796 22.8927 20.4039C23.0754 20.3282 23.2316 20.2 23.3415 20.0356C23.4514 19.8711 23.51 19.6778 23.51 19.48C23.51 19.2148 23.4047 18.9604 23.2171 18.7729C23.0296 18.5854 22.7752 18.48 22.51 18.48ZM22.51 14C22.3122 14 22.1189 14.0587 21.9545 14.1685C21.79 14.2784 21.6618 14.4346 21.5861 14.6173C21.5105 14.8 21.4907 15.0011 21.5292 15.1951C21.5678 15.3891 21.6631 15.5673 21.8029 15.7071C21.9428 15.847 22.121 15.9422 22.3149 15.9808C22.5089 16.0194 22.71 15.9996 22.8927 15.9239C23.0754 15.8482 23.2316 15.72 23.3415 15.5556C23.4514 15.3911 23.51 15.1978 23.51 15C23.51 14.7348 23.4047 14.4804 23.2171 14.2929C23.0296 14.1054 22.7752 14 22.51 14ZM26 16C25.7348 16 25.4805 16.1054 25.2929 16.2929C25.1054 16.4804 25 16.7348 25 17V18C25 18.2652 25.1054 18.5196 25.2929 18.7071C25.4805 18.8947 25.7348 19 26 19C26.2652 19 26.5196 18.8947 26.7071 18.7071C26.8947 18.5196 27 18.2652 27 18V17C27 16.7348 26.8947 16.4804 26.7071 16.2929C26.5196 16.1054 26.2652 16 26 16ZM34.5 14.57C34.1551 14.3715 33.774 14.2437 33.3792 14.1939C32.9843 14.1441 32.5835 14.1734 32.2 14.28C31.801 14.3869 31.4293 14.5778 31.11 14.84L19.51 8.13001C19.358 8.04224 19.1856 7.99603 19.01 7.99603C18.8345 7.99603 18.662 8.04224 18.51 8.13001C18.3556 8.21683 18.2269 8.34314 18.1373 8.49601C18.0477 8.64888 18.0003 8.82281 18 9.00001V22.17C17.4099 22.3691 16.8982 22.7504 16.5388 23.259C16.1793 23.7676 15.9907 24.3773 16 25C15.9997 25.782 16.3048 26.5332 16.8502 27.0935C17.3957 27.6539 18.1383 27.9792 18.92 28H19.5C22.7768 27.9923 25.9931 27.1177 28.8225 25.465C31.652 23.8123 33.9937 21.4404 35.61 18.59C35.9833 17.908 36.0773 17.1077 35.8721 16.3578C35.6669 15.6079 35.1786 14.9669 34.51 14.57H34.5ZM20 10.73L29.89 16.44C28.7928 18.0772 27.326 19.4335 25.608 20.3993C23.89 21.3651 21.969 21.9135 20 22V10.73ZM33.87 17.61C32.3855 20.2257 30.2174 22.3883 27.598 23.8662C24.9786 25.3441 22.0065 26.0817 19 26C18.7348 26 18.4805 25.8947 18.2929 25.7071C18.1054 25.5196 18 25.2652 18 25C17.9992 24.866 18.0254 24.7332 18.0769 24.6096C18.1285 24.4859 18.2043 24.3738 18.3 24.28C18.4879 24.0989 18.7391 23.9984 19 24H19.51C22.0777 23.999 24.5991 23.3161 26.8164 22.0212C29.0337 20.7263 30.8674 18.8658 32.13 16.63C32.1907 16.5203 32.2737 16.4245 32.3736 16.3487C32.4734 16.273 32.588 16.2189 32.71 16.19C32.9622 16.1208 33.2314 16.1531 33.46 16.28C33.6895 16.4033 33.8617 16.6113 33.9402 16.8597C34.0186 17.1081 33.997 17.3773 33.88 17.61H33.87Z" fill="white"/>
<path d="M1.08 52V44.128H2.28L3.792 48.328C3.888 48.6 3.98 48.876 4.068 49.156C4.164 49.428 4.26 49.7 4.356 49.972H4.404C4.5 49.7 4.588 49.428 4.668 49.156C4.756 48.876 4.848 48.6 4.944 48.328L6.432 44.128H7.644V52H6.708V47.668C6.708 47.316 6.724 46.928 6.756 46.504C6.788 46.08 6.816 45.692 6.84 45.34H6.792L6.168 47.128L4.68 51.208H4.02L2.532 47.128L1.908 45.34H1.86C1.884 45.692 1.908 46.08 1.932 46.504C1.964 46.928 1.98 47.316 1.98 47.668V52H1.08ZM11.0468 52.144C10.5588 52.144 10.1508 52 9.82275 51.712C9.50275 51.424 9.34275 51.016 9.34275 50.488C9.34275 49.848 9.62675 49.36 10.1948 49.024C10.7628 48.68 11.6708 48.44 12.9188 48.304C12.9188 48.12 12.8988 47.94 12.8588 47.764C12.8268 47.588 12.7668 47.432 12.6788 47.296C12.5908 47.16 12.4668 47.052 12.3068 46.972C12.1548 46.884 11.9588 46.84 11.7188 46.84C11.3828 46.84 11.0668 46.904 10.7708 47.032C10.4748 47.16 10.2108 47.304 9.97875 47.464L9.59475 46.78C9.86675 46.604 10.1988 46.436 10.5908 46.276C10.9828 46.108 11.4148 46.024 11.8867 46.024C12.5988 46.024 13.1148 46.244 13.4348 46.684C13.7548 47.116 13.9148 47.696 13.9148 48.424V52H13.0988L13.0148 51.304H12.9788C12.6988 51.536 12.3988 51.736 12.0788 51.904C11.7588 52.064 11.4148 52.144 11.0468 52.144ZM11.3348 51.352C11.6148 51.352 11.8788 51.288 12.1268 51.16C12.3748 51.024 12.6388 50.828 12.9188 50.572V48.952C12.4308 49.016 12.0188 49.092 11.6828 49.18C11.3548 49.268 11.0868 49.372 10.8788 49.492C10.6788 49.612 10.5308 49.752 10.4348 49.912C10.3468 50.064 10.3027 50.232 10.3027 50.416C10.3027 50.752 10.4028 50.992 10.6028 51.136C10.8028 51.28 11.0468 51.352 11.3348 51.352ZM15.7496 52V43.456H16.7216V49.24H16.7576L19.2416 46.168H20.3336L18.3776 48.508L20.5976 52H19.5176L17.8136 49.192L16.7216 50.464V52H15.7496ZM22.9178 52.144C22.4298 52.144 22.0218 52 21.6938 51.712C21.3738 51.424 21.2138 51.016 21.2138 50.488C21.2138 49.848 21.4978 49.36 22.0658 49.024C22.6338 48.68 23.5418 48.44 24.7898 48.304C24.7898 48.12 24.7698 47.94 24.7298 47.764C24.6978 47.588 24.6378 47.432 24.5498 47.296C24.4618 47.16 24.3378 47.052 24.1778 46.972C24.0258 46.884 23.8298 46.84 23.5898 46.84C23.2538 46.84 22.9378 46.904 22.6418 47.032C22.3458 47.16 22.0818 47.304 21.8498 47.464L21.4658 46.78C21.7378 46.604 22.0698 46.436 22.4618 46.276C22.8538 46.108 23.2858 46.024 23.7578 46.024C24.4698 46.024 24.9858 46.244 25.3058 46.684C25.6258 47.116 25.7858 47.696 25.7858 48.424V52H24.9698L24.8858 51.304H24.8498C24.5698 51.536 24.2698 51.736 23.9498 51.904C23.6298 52.064 23.2858 52.144 22.9178 52.144ZM23.2058 51.352C23.4858 51.352 23.7498 51.288 23.9978 51.16C24.2458 51.024 24.5098 50.828 24.7898 50.572V48.952C24.3018 49.016 23.8898 49.092 23.5538 49.18C23.2258 49.268 22.9578 49.372 22.7498 49.492C22.5498 49.612 22.4018 49.752 22.3058 49.912C22.2178 50.064 22.1738 50.232 22.1738 50.416C22.1738 50.752 22.2738 50.992 22.4738 51.136C22.6738 51.28 22.9178 51.352 23.2058 51.352ZM27.6207 52V46.168H28.4367L28.5207 47.008H28.5567C28.8367 46.728 29.1287 46.496 29.4327 46.312C29.7447 46.12 30.1047 46.024 30.5127 46.024C31.1287 46.024 31.5767 46.216 31.8567 46.6C32.1447 46.984 32.2887 47.552 32.2887 48.304V52H31.3047V48.436C31.3047 47.884 31.2167 47.488 31.0407 47.248C30.8647 47 30.5847 46.876 30.2007 46.876C29.8967 46.876 29.6287 46.952 29.3967 47.104C29.1647 47.256 28.9007 47.48 28.6047 47.776V52H27.6207ZM35.5272 52.144C35.0392 52.144 34.6312 52 34.3032 51.712C33.9832 51.424 33.8232 51.016 33.8232 50.488C33.8232 49.848 34.1072 49.36 34.6752 49.024C35.2432 48.68 36.1512 48.44 37.3992 48.304C37.3992 48.12 37.3792 47.94 37.3392 47.764C37.3072 47.588 37.2472 47.432 37.1592 47.296C37.0712 47.16 36.9472 47.052 36.7872 46.972C36.6352 46.884 36.4392 46.84 36.1992 46.84C35.8632 46.84 35.5472 46.904 35.2512 47.032C34.9552 47.16 34.6912 47.304 34.4592 47.464L34.0752 46.78C34.3472 46.604 34.6792 46.436 35.0712 46.276C35.4632 46.108 35.8952 46.024 36.3672 46.024C37.0792 46.024 37.5952 46.244 37.9152 46.684C38.2352 47.116 38.3952 47.696 38.3952 48.424V52H37.5792L37.4952 51.304H37.4592C37.1792 51.536 36.8792 51.736 36.5592 51.904C36.2392 52.064 35.8952 52.144 35.5272 52.144ZM35.8152 51.352C36.0952 51.352 36.3592 51.288 36.6072 51.16C36.8552 51.024 37.1192 50.828 37.3992 50.572V48.952C36.9112 49.016 36.4992 49.092 36.1632 49.18C35.8352 49.268 35.5672 49.372 35.3592 49.492C35.1592 49.612 35.0112 49.752 34.9152 49.912C34.8272 50.064 34.7832 50.232 34.7832 50.416C34.7832 50.752 34.8832 50.992 35.0832 51.136C35.2832 51.28 35.5272 51.352 35.8152 51.352ZM40.2301 52V46.168H41.0461L41.1301 47.008H41.1661C41.4461 46.728 41.7381 46.496 42.0421 46.312C42.3541 46.12 42.7141 46.024 43.1221 46.024C43.7381 46.024 44.1861 46.216 44.4661 46.6C44.7541 46.984 44.8981 47.552 44.8981 48.304V52H43.9141V48.436C43.9141 47.884 43.8261 47.488 43.6501 47.248C43.4741 47 43.1941 46.876 42.8101 46.876C42.5061 46.876 42.2381 46.952 42.0061 47.104C41.7741 47.256 41.5101 47.48 41.2141 47.776V52H40.2301Z" fill="#828282"/>
</svg>
