<svg width="39" height="55" viewBox="0 0 39 55" fill="none" xmlns="http://www.w3.org/2000/svg">
<circle cx="21" cy="18" r="18" fill="#EB5757"/>
<path d="M27 13H26.65C26.8782 12.5328 26.9979 12.02 27 11.5C27.003 10.8033 26.7975 10.1217 26.4098 9.54284C26.0221 8.96398 25.4701 8.51439 24.8247 8.25195C24.1794 7.9895 23.4703 7.92621 22.7886 8.07022C22.107 8.21423 21.4841 8.55895 21 9.06001C20.5159 8.55895 19.893 8.21423 19.2114 8.07022C18.5297 7.92621 17.8206 7.9895 17.1753 8.25195C16.5299 8.51439 15.9779 8.96398 15.5902 9.54284C15.2025 10.1217 14.997 10.8033 15 11.5C15.0021 12.02 15.1218 12.5328 15.35 13H15C14.2044 13 13.4413 13.3161 12.8787 13.8787C12.3161 14.4413 12 15.2044 12 16V18C12 18.2652 12.1054 18.5196 12.2929 18.7071C12.4804 18.8946 12.7348 19 13 19H14V25C14 25.7957 14.3161 26.5587 14.8787 27.1213C15.4413 27.6839 16.2044 28 17 28H25C25.7956 28 26.5587 27.6839 27.1213 27.1213C27.6839 26.5587 28 25.7957 28 25V19H29C29.2652 19 29.5196 18.8946 29.7071 18.7071C29.8946 18.5196 30 18.2652 30 18V16C30 15.2044 29.6839 14.4413 29.1213 13.8787C28.5587 13.3161 27.7956 13 27 13ZM20 26H17C16.7348 26 16.4804 25.8947 16.2929 25.7071C16.1054 25.5196 16 25.2652 16 25V19H20V26ZM20 17H14V16C14 15.7348 14.1054 15.4804 14.2929 15.2929C14.4804 15.1054 14.7348 15 15 15H20V17ZM20 13H18.5C18.2033 13 17.9133 12.912 17.6666 12.7472C17.42 12.5824 17.2277 12.3481 17.1142 12.074C17.0006 11.7999 16.9709 11.4983 17.0288 11.2074C17.0867 10.9164 17.2296 10.6491 17.4393 10.4393C17.6491 10.2296 17.9164 10.0867 18.2074 10.0288C18.4983 9.97095 18.7999 10.0007 19.074 10.1142C19.3481 10.2277 19.5824 10.42 19.7472 10.6667C19.912 10.9133 20 11.2033 20 11.5V13ZM22 11.5C22 11.2033 22.088 10.9133 22.2528 10.6667C22.4176 10.42 22.6519 10.2277 22.926 10.1142C23.2001 10.0007 23.5017 9.97095 23.7926 10.0288C24.0836 10.0867 24.3509 10.2296 24.5607 10.4393C24.7704 10.6491 24.9133 10.9164 24.9712 11.2074C25.0291 11.4983 24.9994 11.7999 24.8858 12.074C24.7723 12.3481 24.58 12.5824 24.3334 12.7472C24.0867 12.912 23.7967 13 23.5 13H22V11.5ZM26 25C26 25.2652 25.8946 25.5196 25.7071 25.7071C25.5196 25.8947 25.2652 26 25 26H22V19H26V25ZM28 17H22V15H27C27.2652 15 27.5196 15.1054 27.7071 15.2929C27.8946 15.4804 28 15.7348 28 16V17Z" fill="white"/>
<path d="M1.08 52V44.128H2.076V47.428H5.736V44.128H6.744V52H5.736V48.292H2.076V52H1.08ZM10.1561 52.144C9.66813 52.144 9.26013 52 8.93213 51.712C8.61213 51.424 8.45213 51.016 8.45213 50.488C8.45213 49.848 8.73613 49.36 9.30413 49.024C9.87213 48.68 10.7801 48.44 12.0281 48.304C12.0281 48.12 12.0081 47.94 11.9681 47.764C11.9361 47.588 11.8761 47.432 11.7881 47.296C11.7001 47.16 11.5761 47.052 11.4161 46.972C11.2641 46.884 11.0681 46.84 10.8281 46.84C10.4921 46.84 10.1761 46.904 9.88013 47.032C9.58413 47.16 9.32013 47.304 9.08813 47.464L8.70413 46.78C8.97613 46.604 9.30813 46.436 9.70013 46.276C10.0921 46.108 10.5241 46.024 10.9961 46.024C11.7081 46.024 12.2241 46.244 12.5441 46.684C12.8641 47.116 13.0241 47.696 13.0241 48.424V52H12.2081L12.1241 51.304H12.0881C11.8081 51.536 11.5081 51.736 11.1881 51.904C10.8681 52.064 10.5241 52.144 10.1561 52.144ZM10.4441 51.352C10.7241 51.352 10.9881 51.288 11.2361 51.16C11.4841 51.024 11.7481 50.828 12.0281 50.572V48.952C11.5401 49.016 11.1281 49.092 10.7921 49.18C10.4641 49.268 10.1961 49.372 9.98813 49.492C9.78813 49.612 9.64013 49.752 9.54413 49.912C9.45613 50.064 9.41212 50.232 9.41212 50.416C9.41212 50.752 9.51213 50.992 9.71213 51.136C9.91213 51.28 10.1561 51.352 10.4441 51.352ZM16.851 52.144C16.115 52.144 15.527 51.88 15.087 51.352C14.655 50.824 14.439 50.072 14.439 49.096C14.439 48.624 14.507 48.2 14.643 47.824C14.787 47.44 14.975 47.116 15.207 46.852C15.439 46.588 15.707 46.384 16.011 46.24C16.315 46.096 16.635 46.024 16.971 46.024C17.307 46.024 17.599 46.084 17.847 46.204C18.095 46.324 18.347 46.488 18.603 46.696L18.555 45.7V43.456H19.551V52H18.735L18.651 51.316H18.615C18.383 51.54 18.115 51.736 17.811 51.904C17.515 52.064 17.195 52.144 16.851 52.144ZM17.067 51.316C17.339 51.316 17.595 51.252 17.835 51.124C18.075 50.988 18.315 50.784 18.555 50.512V47.464C18.307 47.24 18.067 47.084 17.835 46.996C17.611 46.9 17.379 46.852 17.139 46.852C16.907 46.852 16.687 46.908 16.479 47.02C16.279 47.124 16.103 47.276 15.951 47.476C15.799 47.668 15.679 47.9 15.591 48.172C15.503 48.444 15.459 48.748 15.459 49.084C15.459 49.788 15.599 50.336 15.879 50.728C16.159 51.12 16.555 51.316 17.067 51.316ZM21.5153 52V46.168H22.4993V52H21.5153ZM22.0193 44.968C21.8273 44.968 21.6633 44.908 21.5273 44.788C21.3993 44.668 21.3353 44.516 21.3353 44.332C21.3353 44.14 21.3993 43.988 21.5273 43.876C21.6633 43.756 21.8273 43.696 22.0193 43.696C22.2113 43.696 22.3713 43.756 22.4993 43.876C22.6353 43.988 22.7033 44.14 22.7033 44.332C22.7033 44.516 22.6353 44.668 22.4993 44.788C22.3713 44.908 22.2113 44.968 22.0193 44.968ZM25.8124 52.144C25.3244 52.144 24.9164 52 24.5884 51.712C24.2684 51.424 24.1084 51.016 24.1084 50.488C24.1084 49.848 24.3924 49.36 24.9604 49.024C25.5284 48.68 26.4364 48.44 27.6844 48.304C27.6844 48.12 27.6644 47.94 27.6244 47.764C27.5924 47.588 27.5324 47.432 27.4444 47.296C27.3564 47.16 27.2324 47.052 27.0724 46.972C26.9204 46.884 26.7244 46.84 26.4844 46.84C26.1484 46.84 25.8324 46.904 25.5364 47.032C25.2404 47.16 24.9764 47.304 24.7444 47.464L24.3604 46.78C24.6324 46.604 24.9644 46.436 25.3564 46.276C25.7484 46.108 26.1804 46.024 26.6524 46.024C27.3644 46.024 27.8804 46.244 28.2004 46.684C28.5204 47.116 28.6804 47.696 28.6804 48.424V52H27.8644L27.7804 51.304H27.7444C27.4644 51.536 27.1644 51.736 26.8444 51.904C26.5244 52.064 26.1804 52.144 25.8124 52.144ZM26.1004 51.352C26.3804 51.352 26.6444 51.288 26.8924 51.16C27.1404 51.024 27.4044 50.828 27.6844 50.572V48.952C27.1964 49.016 26.7844 49.092 26.4484 49.18C26.1204 49.268 25.8524 49.372 25.6444 49.492C25.4444 49.612 25.2964 49.752 25.2004 49.912C25.1124 50.064 25.0684 50.232 25.0684 50.416C25.0684 50.752 25.1684 50.992 25.3684 51.136C25.5684 51.28 25.8124 51.352 26.1004 51.352ZM30.5153 52V43.456H31.4993V45.784L31.4633 46.984C31.7433 46.72 32.0353 46.496 32.3393 46.312C32.6433 46.12 32.9993 46.024 33.4073 46.024C34.0233 46.024 34.4713 46.216 34.7513 46.6C35.0393 46.984 35.1833 47.552 35.1833 48.304V52H34.1993V48.436C34.1993 47.884 34.1113 47.488 33.9353 47.248C33.7593 47 33.4793 46.876 33.0953 46.876C32.7913 46.876 32.5233 46.952 32.2913 47.104C32.0593 47.256 31.7953 47.48 31.4993 47.776V52H30.5153Z" fill="#828282"/>
</svg>
