<svg width="58" height="55" viewBox="0 0 58 55" fill="none" xmlns="http://www.w3.org/2000/svg">
<circle cx="30" cy="18" r="18" fill="#BB6BD9"/>
<path d="M39.66 16.25L30.66 8.25002C30.4775 8.0897 30.2429 8.00128 30 8.00128C29.7571 8.00128 29.5225 8.0897 29.34 8.25002L20.34 16.25C20.187 16.3853 20.0792 16.5642 20.0309 16.7627C19.9826 16.9611 19.9963 17.1696 20.07 17.36C20.1425 17.548 20.2701 17.7096 20.436 17.8238C20.602 17.938 20.7986 17.9994 21 18H22V27C22 27.2652 22.1054 27.5196 22.2929 27.7071C22.4804 27.8947 22.7348 28 23 28H37C37.2652 28 37.5196 27.8947 37.7071 27.7071C37.8946 27.5196 38 27.2652 38 27V18H39C39.2014 17.9994 39.398 17.938 39.5639 17.8238C39.7299 17.7096 39.8575 17.548 39.93 17.36C40.0037 17.1696 40.0174 16.9611 39.9691 16.7627C39.9208 16.5642 39.813 16.3853 39.66 16.25ZM31 26H29V23C29 22.7348 29.1054 22.4804 29.2929 22.2929C29.4804 22.1054 29.7348 22 30 22C30.2652 22 30.5196 22.1054 30.7071 22.2929C30.8946 22.4804 31 22.7348 31 23V26ZM36 26H33V23C33 22.2044 32.6839 21.4413 32.1213 20.8787C31.5587 20.3161 30.7956 20 30 20C29.2043 20 28.4413 20.3161 27.8787 20.8787C27.3161 21.4413 27 22.2044 27 23V26H24V18H36V26ZM23.63 16L30 10.34L36.37 16H23.63Z" fill="white"/>
<path d="M2.5317 47.596L2.1597 48.796H4.5237L4.1517 47.596C4.0077 47.156 3.8717 46.72 3.7437 46.288C3.6157 45.848 3.4877 45.4 3.3597 44.944H3.3117C3.1917 45.4 3.0677 45.848 2.9397 46.288C2.8117 46.72 2.6757 47.156 2.5317 47.596ZM0.131703 52L2.7957 44.128H3.9237L6.5877 52H5.5197L4.7757 49.6H1.9077L1.1517 52H0.131703ZM8.65105 52.144C8.27505 52.144 8.00705 52.032 7.84705 51.808C7.68705 51.584 7.60705 51.256 7.60705 50.824V43.456H8.59105V50.896C8.59105 51.056 8.61905 51.168 8.67505 51.232C8.73105 51.296 8.79505 51.328 8.86705 51.328C8.89905 51.328 8.92705 51.328 8.95105 51.328C8.98305 51.328 9.02705 51.32 9.08305 51.304L9.21505 52.048C9.15105 52.08 9.07505 52.104 8.98705 52.12C8.89905 52.136 8.78705 52.144 8.65105 52.144ZM12.0096 52.144C11.5216 52.144 11.1136 52 10.7856 51.712C10.4656 51.424 10.3056 51.016 10.3056 50.488C10.3056 49.848 10.5896 49.36 11.1576 49.024C11.7256 48.68 12.6336 48.44 13.8816 48.304C13.8816 48.12 13.8616 47.94 13.8216 47.764C13.7896 47.588 13.7296 47.432 13.6416 47.296C13.5536 47.16 13.4296 47.052 13.2696 46.972C13.1176 46.884 12.9216 46.84 12.6816 46.84C12.3456 46.84 12.0296 46.904 11.7336 47.032C11.4376 47.16 11.1736 47.304 10.9416 47.464L10.5576 46.78C10.8296 46.604 11.1616 46.436 11.5536 46.276C11.9456 46.108 12.3776 46.024 12.8496 46.024C13.5616 46.024 14.0776 46.244 14.3976 46.684C14.7176 47.116 14.8776 47.696 14.8776 48.424V52H14.0616L13.9776 51.304H13.9416C13.6616 51.536 13.3616 51.736 13.0416 51.904C12.7216 52.064 12.3776 52.144 12.0096 52.144ZM12.2976 51.352C12.5776 51.352 12.8416 51.288 13.0896 51.16C13.3376 51.024 13.6016 50.828 13.8816 50.572V48.952C13.3936 49.016 12.9816 49.092 12.6456 49.18C12.3176 49.268 12.0496 49.372 11.8416 49.492C11.6416 49.612 11.4936 49.752 11.3976 49.912C11.3096 50.064 11.2656 50.232 11.2656 50.416C11.2656 50.752 11.3656 50.992 11.5656 51.136C11.7656 51.28 12.0096 51.352 12.2976 51.352ZM18.3845 52.144C18.0725 52.144 17.8085 52.096 17.5925 52C17.3845 51.904 17.2125 51.772 17.0765 51.604C16.9485 51.436 16.8565 51.232 16.8005 50.992C16.7445 50.752 16.7165 50.488 16.7165 50.2V46.972H15.8525V46.228L16.7645 46.168L16.8845 44.536H17.7125V46.168H19.2845V46.972H17.7125V50.212C17.7125 50.572 17.7765 50.852 17.9045 51.052C18.0405 51.244 18.2765 51.34 18.6125 51.34C18.7165 51.34 18.8285 51.324 18.9485 51.292C19.0685 51.26 19.1765 51.224 19.2725 51.184L19.4645 51.928C19.3045 51.984 19.1285 52.032 18.9365 52.072C18.7525 52.12 18.5685 52.144 18.3845 52.144ZM23.1015 52V44.128H25.5615C25.9615 44.128 26.3295 44.168 26.6655 44.248C27.0095 44.32 27.3015 44.444 27.5415 44.62C27.7895 44.796 27.9815 45.024 28.1175 45.304C28.2535 45.584 28.3215 45.928 28.3215 46.336C28.3215 46.952 28.1615 47.444 27.8415 47.812C27.5215 48.18 27.0895 48.432 26.5455 48.568L28.5495 52H27.4215L25.5255 48.676H24.0975V52H23.1015ZM24.0975 47.86H25.4175C26.0335 47.86 26.5055 47.736 26.8335 47.488C27.1615 47.232 27.3255 46.848 27.3255 46.336C27.3255 45.816 27.1615 45.452 26.8335 45.244C26.5055 45.036 26.0335 44.932 25.4175 44.932H24.0975V47.86ZM31.5415 52.144C30.9175 52.144 30.4615 51.952 30.1735 51.568C29.8935 51.184 29.7535 50.616 29.7535 49.864V46.168H30.7495V49.732C30.7495 50.284 30.8335 50.684 31.0015 50.932C31.1775 51.172 31.4575 51.292 31.8415 51.292C32.1455 51.292 32.4135 51.216 32.6455 51.064C32.8775 50.904 33.1335 50.652 33.4135 50.308V46.168H34.3975V52H33.5815L33.4975 51.088H33.4615C33.1895 51.408 32.9015 51.664 32.5975 51.856C32.3015 52.048 31.9495 52.144 31.5415 52.144ZM36.3649 52V46.168H37.1809L37.2649 47.008H37.3009C37.5569 46.728 37.8329 46.496 38.1289 46.312C38.4329 46.12 38.7609 46.024 39.1129 46.024C39.5609 46.024 39.9089 46.124 40.1569 46.324C40.4129 46.516 40.6009 46.788 40.7209 47.14C41.0249 46.804 41.3289 46.536 41.6329 46.336C41.9449 46.128 42.2809 46.024 42.6409 46.024C43.2409 46.024 43.6849 46.216 43.9729 46.6C44.2689 46.984 44.4169 47.552 44.4169 48.304V52H43.4329V48.436C43.4329 47.884 43.3449 47.488 43.1689 47.248C42.9929 47 42.7209 46.876 42.3529 46.876C41.9129 46.876 41.4249 47.176 40.8889 47.776V52H39.9049V48.436C39.9049 47.884 39.8169 47.488 39.6409 47.248C39.4649 47 39.1889 46.876 38.8129 46.876C38.3729 46.876 37.8849 47.176 37.3489 47.776V52H36.3649ZM47.6581 52.144C47.1701 52.144 46.7621 52 46.4341 51.712C46.1141 51.424 45.9541 51.016 45.9541 50.488C45.9541 49.848 46.2381 49.36 46.8061 49.024C47.3741 48.68 48.2821 48.44 49.5301 48.304C49.5301 48.12 49.5101 47.94 49.4701 47.764C49.4381 47.588 49.3781 47.432 49.2901 47.296C49.2021 47.16 49.0781 47.052 48.9181 46.972C48.7661 46.884 48.5701 46.84 48.3301 46.84C47.9941 46.84 47.6781 46.904 47.3821 47.032C47.0861 47.16 46.8221 47.304 46.5901 47.464L46.2061 46.78C46.4781 46.604 46.8101 46.436 47.2021 46.276C47.5941 46.108 48.0261 46.024 48.4981 46.024C49.2101 46.024 49.7261 46.244 50.0461 46.684C50.3661 47.116 50.5261 47.696 50.5261 48.424V52H49.7101L49.6261 51.304H49.5901C49.3101 51.536 49.0101 51.736 48.6901 51.904C48.3701 52.064 48.0261 52.144 47.6581 52.144ZM47.9461 51.352C48.2261 51.352 48.4901 51.288 48.7381 51.16C48.9861 51.024 49.2501 50.828 49.5301 50.572V48.952C49.0421 49.016 48.6301 49.092 48.2941 49.18C47.9661 49.268 47.6981 49.372 47.4901 49.492C47.2901 49.612 47.1421 49.752 47.0461 49.912C46.9581 50.064 46.9141 50.232 46.9141 50.416C46.9141 50.752 47.0141 50.992 47.2141 51.136C47.4141 51.28 47.6581 51.352 47.9461 51.352ZM52.361 52V43.456H53.345V45.784L53.309 46.984C53.589 46.72 53.881 46.496 54.185 46.312C54.489 46.12 54.845 46.024 55.253 46.024C55.869 46.024 56.317 46.216 56.597 46.6C56.885 46.984 57.029 47.552 57.029 48.304V52H56.045V48.436C56.045 47.884 55.957 47.488 55.781 47.248C55.605 47 55.325 46.876 54.941 46.876C54.637 46.876 54.369 46.952 54.137 47.104C53.905 47.256 53.641 47.48 53.345 47.776V52H52.361Z" fill="#828282"/>
</svg>
