<svg width="41" height="55" viewBox="0 0 41 55" fill="none" xmlns="http://www.w3.org/2000/svg">
<circle cx="20" cy="18" r="18" fill="#56CCF2"/>
<path d="M14.88 18.88C14.5853 19.1546 14.3488 19.4859 14.1849 19.8538C14.0209 20.2218 13.9327 20.6191 13.9256 21.0219C13.9185 21.4247 13.9926 21.8248 14.1435 22.1984C14.2944 22.5719 14.519 22.9113 14.8039 23.1962C15.0887 23.481 15.4281 23.7056 15.8016 23.8565C16.1752 24.0074 16.5753 24.0815 16.9781 24.0744C17.3809 24.0673 17.7782 23.9791 18.1462 23.8151C18.5142 23.6512 18.8454 23.4147 19.12 23.12C19.6818 22.5575 19.9974 21.795 19.9974 21C19.9974 20.205 19.6818 19.4425 19.12 18.88C18.5477 18.337 17.7889 18.0343 17 18.0343C16.2111 18.0343 15.4523 18.337 14.88 18.88ZM17.71 21.71C17.617 21.8037 17.5064 21.8781 17.3846 21.9289C17.2627 21.9797 17.132 22.0058 17 22.0058C16.868 22.0058 16.7373 21.9797 16.6154 21.9289C16.4936 21.8781 16.383 21.8037 16.29 21.71C16.1963 21.617 16.1219 21.5064 16.0711 21.3846C16.0203 21.2627 15.9942 21.132 15.9942 21C15.9942 20.868 16.0203 20.7373 16.0711 20.6154C16.1219 20.4936 16.1963 20.383 16.29 20.29C16.383 20.1963 16.4936 20.1219 16.6154 20.0711C16.7373 20.0203 16.868 19.9942 17 19.9942C17.132 19.9942 17.2627 20.0203 17.3846 20.0711C17.5064 20.1219 17.617 20.1963 17.71 20.29C17.8037 20.383 17.8781 20.4936 17.9289 20.6154C17.9797 20.7373 18.0058 20.868 18.0058 21C18.0058 21.132 17.9797 21.2627 17.9289 21.3846C17.8781 21.5064 17.8037 21.617 17.71 21.71ZM17 14C16.7348 14 16.4804 14.1054 16.2929 14.2929C16.1054 14.4804 16 14.7348 16 15C16 15.2652 16.1054 15.5196 16.2929 15.7071C16.4804 15.8946 16.7348 16 17 16C18.3261 16 19.5979 16.5268 20.5355 17.4645C21.4732 18.4021 22 19.6739 22 21C22 21.2652 22.1054 21.5196 22.2929 21.7071C22.4804 21.8946 22.7348 22 23 22C23.2652 22 23.5196 21.8946 23.7071 21.7071C23.8946 21.5196 24 21.2652 24 21C24 19.1435 23.2625 17.363 21.9498 16.0503C20.637 14.7375 18.8565 14 17 14ZM17 10C16.7348 10 16.4804 10.1054 16.2929 10.2929C16.1054 10.4804 16 10.7348 16 11C16 11.2652 16.1054 11.5196 16.2929 11.7071C16.4804 11.8946 16.7348 12 17 12C19.387 12 21.6761 12.9482 23.364 14.636C25.0518 16.3239 26 18.6131 26 21C26 21.2652 26.1054 21.5196 26.2929 21.7071C26.4804 21.8946 26.7348 22 27 22C27.2652 22 27.5196 21.8946 27.7071 21.7071C27.8946 21.5196 28 21.2652 28 21C28 18.0826 26.8411 15.2847 24.7782 13.2218C22.7153 11.1589 19.9174 10 17 10Z" fill="white"/>
<path d="M1.49406 52V44.128H2.49006V52H1.49406ZM4.55041 52V46.168H5.36641L5.45041 47.008H5.48641C5.76641 46.728 6.05841 46.496 6.36241 46.312C6.67441 46.12 7.03441 46.024 7.44241 46.024C8.05841 46.024 8.50641 46.216 8.78641 46.6C9.07441 46.984 9.21841 47.552 9.21841 48.304V52H8.23441V48.436C8.23441 47.884 8.14641 47.488 7.97041 47.248C7.79441 47 7.51441 46.876 7.13041 46.876C6.82641 46.876 6.55841 46.952 6.32641 47.104C6.09441 47.256 5.83041 47.48 5.53441 47.776V52H4.55041ZM12.9489 52.144C12.6369 52.144 12.3729 52.096 12.1569 52C11.9489 51.904 11.7769 51.772 11.6409 51.604C11.5129 51.436 11.4209 51.232 11.3649 50.992C11.3089 50.752 11.2809 50.488 11.2809 50.2V46.972H10.4169V46.228L11.3289 46.168L11.4489 44.536H12.2769V46.168H13.8489V46.972H12.2769V50.212C12.2769 50.572 12.3409 50.852 12.4689 51.052C12.6049 51.244 12.8409 51.34 13.1769 51.34C13.2809 51.34 13.3929 51.324 13.5129 51.292C13.6329 51.26 13.7409 51.224 13.8369 51.184L14.0289 51.928C13.8689 51.984 13.6929 52.032 13.5009 52.072C13.3169 52.12 13.1329 52.144 12.9489 52.144ZM17.3675 52.144C16.9755 52.144 16.6075 52.076 16.2635 51.94C15.9275 51.796 15.6315 51.596 15.3755 51.34C15.1275 51.076 14.9315 50.756 14.7875 50.38C14.6435 50.004 14.5715 49.576 14.5715 49.096C14.5715 48.616 14.6435 48.188 14.7875 47.812C14.9395 47.428 15.1355 47.104 15.3755 46.84C15.6235 46.576 15.9035 46.376 16.2155 46.24C16.5275 46.096 16.8515 46.024 17.1875 46.024C17.5555 46.024 17.8835 46.088 18.1715 46.216C18.4675 46.344 18.7115 46.528 18.9035 46.768C19.1035 47.008 19.2555 47.296 19.3595 47.632C19.4635 47.968 19.5155 48.344 19.5155 48.76C19.5155 48.864 19.5115 48.968 19.5035 49.072C19.5035 49.168 19.4955 49.252 19.4795 49.324H15.5435C15.5835 49.948 15.7755 50.444 16.1195 50.812C16.4715 51.172 16.9275 51.352 17.4875 51.352C17.7675 51.352 18.0235 51.312 18.2555 51.232C18.4955 51.144 18.7235 51.032 18.9395 50.896L19.2875 51.544C19.0315 51.704 18.7475 51.844 18.4355 51.964C18.1235 52.084 17.7675 52.144 17.3675 52.144ZM15.5315 48.616H18.6515C18.6515 48.024 18.5235 47.576 18.2675 47.272C18.0195 46.96 17.6675 46.804 17.2115 46.804C17.0035 46.804 16.8035 46.844 16.6115 46.924C16.4275 47.004 16.2595 47.124 16.1075 47.284C15.9555 47.436 15.8275 47.624 15.7235 47.848C15.6275 48.072 15.5635 48.328 15.5315 48.616ZM20.9567 52V46.168H21.7727L21.8567 47.224H21.8927C22.0927 46.856 22.3327 46.564 22.6127 46.348C22.9007 46.132 23.2127 46.024 23.5487 46.024C23.7807 46.024 23.9887 46.064 24.1727 46.144L23.9807 47.008C23.8847 46.976 23.7967 46.952 23.7167 46.936C23.6367 46.92 23.5367 46.912 23.4167 46.912C23.1687 46.912 22.9087 47.012 22.6367 47.212C22.3727 47.412 22.1407 47.76 21.9407 48.256V52H20.9567ZM25.1168 52V46.168H25.9328L26.0168 47.008H26.0528C26.3328 46.728 26.6248 46.496 26.9288 46.312C27.2408 46.12 27.6008 46.024 28.0088 46.024C28.6248 46.024 29.0728 46.216 29.3528 46.6C29.6408 46.984 29.7848 47.552 29.7848 48.304V52H28.8008V48.436C28.8008 47.884 28.7128 47.488 28.5368 47.248C28.3608 47 28.0808 46.876 27.6968 46.876C27.3928 46.876 27.1248 46.952 26.8928 47.104C26.6608 47.256 26.3968 47.48 26.1008 47.776V52H25.1168ZM34.0433 52.144C33.6513 52.144 33.2833 52.076 32.9393 51.94C32.6033 51.796 32.3073 51.596 32.0513 51.34C31.8033 51.076 31.6073 50.756 31.4633 50.38C31.3193 50.004 31.2473 49.576 31.2473 49.096C31.2473 48.616 31.3193 48.188 31.4633 47.812C31.6153 47.428 31.8113 47.104 32.0513 46.84C32.2993 46.576 32.5793 46.376 32.8913 46.24C33.2033 46.096 33.5273 46.024 33.8633 46.024C34.2313 46.024 34.5593 46.088 34.8473 46.216C35.1433 46.344 35.3873 46.528 35.5793 46.768C35.7793 47.008 35.9313 47.296 36.0353 47.632C36.1393 47.968 36.1913 48.344 36.1913 48.76C36.1913 48.864 36.1873 48.968 36.1793 49.072C36.1793 49.168 36.1713 49.252 36.1553 49.324H32.2193C32.2593 49.948 32.4513 50.444 32.7953 50.812C33.1473 51.172 33.6033 51.352 34.1633 51.352C34.4433 51.352 34.6993 51.312 34.9313 51.232C35.1713 51.144 35.3993 51.032 35.6153 50.896L35.9633 51.544C35.7073 51.704 35.4233 51.844 35.1113 51.964C34.7993 52.084 34.4433 52.144 34.0433 52.144ZM32.2073 48.616H35.3273C35.3273 48.024 35.1993 47.576 34.9433 47.272C34.6953 46.96 34.3433 46.804 33.8873 46.804C33.6793 46.804 33.4793 46.844 33.2873 46.924C33.1033 47.004 32.9353 47.124 32.7833 47.284C32.6313 47.436 32.5033 47.624 32.3993 47.848C32.3033 48.072 32.2393 48.328 32.2073 48.616ZM39.3513 52.144C39.0393 52.144 38.7753 52.096 38.5593 52C38.3513 51.904 38.1793 51.772 38.0433 51.604C37.9153 51.436 37.8233 51.232 37.7673 50.992C37.7113 50.752 37.6833 50.488 37.6833 50.2V46.972H36.8193V46.228L37.7313 46.168L37.8513 44.536H38.6793V46.168H40.2513V46.972H38.6793V50.212C38.6793 50.572 38.7433 50.852 38.8713 51.052C39.0073 51.244 39.2433 51.34 39.5793 51.34C39.6833 51.34 39.7953 51.324 39.9153 51.292C40.0353 51.26 40.1433 51.224 40.2393 51.184L40.4313 51.928C40.2713 51.984 40.0953 52.032 39.9033 52.072C39.7193 52.12 39.5353 52.144 39.3513 52.144Z" fill="#828282"/>
</svg>
