<svg width="38" height="55" viewBox="0 0 38 55" fill="none" xmlns="http://www.w3.org/2000/svg">
<circle cx="19" cy="18" r="18" fill="#27AE60"/>
<path d="M15.5 25C15.2033 25 14.9133 25.088 14.6666 25.2528C14.42 25.4176 14.2277 25.6519 14.1142 25.926C14.0006 26.2001 13.9709 26.5017 14.0288 26.7926C14.0867 27.0836 14.2296 27.3509 14.4393 27.5607C14.6491 27.7704 14.9164 27.9133 15.2074 27.9712C15.4983 28.0291 15.7999 27.9993 16.074 27.8858C16.3481 27.7723 16.5824 27.58 16.7472 27.3334C16.912 27.0867 17 26.7967 17 26.5C17 26.1022 16.842 25.7206 16.5607 25.4393C16.2794 25.158 15.8978 25 15.5 25ZM26 22H14C13.7348 22 13.4804 21.8946 13.2929 21.7071C13.1054 21.5196 13 21.2652 13 21C13 20.7348 13.1054 20.4804 13.2929 20.2929C13.4804 20.1054 13.7348 20 14 20H22.491C23.1425 19.998 23.7758 19.7848 24.2959 19.3925C24.8161 19.0002 25.195 18.4499 25.376 17.824L26.961 12.274C27.0034 12.1253 27.0107 11.9687 26.9823 11.8167C26.954 11.6647 26.8907 11.5213 26.7976 11.3978C26.7045 11.2743 26.584 11.1741 26.4456 11.1051C26.3072 11.0361 26.1547 11.0001 26 11H13.74C13.5328 10.417 13.1508 9.91213 12.6462 9.55421C12.1415 9.19629 11.5387 9.00275 10.92 9H10C9.73478 9 9.48043 9.10536 9.29289 9.29289C9.10536 9.48043 9 9.73478 9 10C9 10.2652 9.10536 10.5196 9.29289 10.7071C9.48043 10.8946 9.73478 11 10 11H10.921C11.1382 11.0007 11.3492 11.0717 11.5227 11.2024C11.6961 11.3331 11.8225 11.5164 11.883 11.725L12.038 12.27V12.275L13.679 18.017C12.9152 18.0987 12.2118 18.4702 11.7138 19.0551C11.2157 19.64 10.9611 20.3936 11.0022 21.1607C11.0434 21.9278 11.3772 22.6499 11.935 23.1781C12.4927 23.7064 13.2318 24.0005 14 24H26C26.2652 24 26.5196 23.8946 26.7071 23.7071C26.8946 23.5196 27 23.2652 27 23C27 22.7348 26.8946 22.4804 26.7071 22.2929C26.5196 22.1054 26.2652 22 26 22ZM24.674 13L23.454 17.274C23.3936 17.4829 23.2671 17.6666 23.0935 17.7975C22.9199 17.9284 22.7085 17.9995 22.491 18H15.754L15.499 17.108L14.326 13H24.674ZM23.5 25C23.2033 25 22.9133 25.088 22.6666 25.2528C22.42 25.4176 22.2277 25.6519 22.1142 25.926C22.0006 26.2001 21.9709 26.5017 22.0288 26.7926C22.0867 27.0836 22.2296 27.3509 22.4393 27.5607C22.6491 27.7704 22.9164 27.9133 23.2074 27.9712C23.4983 28.0291 23.7999 27.9993 24.074 27.8858C24.3481 27.7723 24.5824 27.58 24.7472 27.3334C24.912 27.0867 25 26.7967 25 26.5C25 26.1022 24.842 25.7206 24.5607 25.4393C24.2794 25.158 23.8978 25 23.5 25Z" fill="white"/>
<path d="M1.23625 52V44.128H3.57625C3.97625 44.128 4.34025 44.164 4.66825 44.236C5.00425 44.308 5.28825 44.42 5.52025 44.572C5.76025 44.724 5.94425 44.924 6.07225 45.172C6.20825 45.412 6.27625 45.704 6.27625 46.048C6.27625 46.44 6.17625 46.796 5.97625 47.116C5.78425 47.428 5.50025 47.644 5.12425 47.764V47.812C5.60425 47.9 5.99225 48.1 6.28825 48.412C6.58425 48.724 6.73225 49.152 6.73225 49.696C6.73225 50.08 6.66025 50.416 6.51625 50.704C6.37225 50.992 6.16825 51.232 5.90425 51.424C5.64025 51.616 5.32425 51.76 4.95625 51.856C4.58825 51.952 4.18425 52 3.74425 52H1.23625ZM2.23225 47.476H3.39625C4.06825 47.476 4.55225 47.36 4.84825 47.128C5.14425 46.896 5.29225 46.58 5.29225 46.18C5.29225 45.724 5.13625 45.4 4.82425 45.208C4.52025 45.016 4.06025 44.92 3.44425 44.92H2.23225V47.476ZM2.23225 51.208H3.60025C4.28025 51.208 4.80825 51.084 5.18425 50.836C5.56025 50.58 5.74825 50.188 5.74825 49.66C5.74825 49.172 5.56425 48.816 5.19625 48.592C4.82825 48.36 4.29625 48.244 3.60025 48.244H2.23225V51.208ZM10.5589 52.144C10.1669 52.144 9.79894 52.076 9.45494 51.94C9.11894 51.796 8.82294 51.596 8.56694 51.34C8.31894 51.076 8.12294 50.756 7.97894 50.38C7.83494 50.004 7.76294 49.576 7.76294 49.096C7.76294 48.616 7.83494 48.188 7.97894 47.812C8.13094 47.428 8.32694 47.104 8.56694 46.84C8.81494 46.576 9.09494 46.376 9.40694 46.24C9.71894 46.096 10.0429 46.024 10.3789 46.024C10.7469 46.024 11.0749 46.088 11.3629 46.216C11.6589 46.344 11.9029 46.528 12.0949 46.768C12.2949 47.008 12.4469 47.296 12.5509 47.632C12.6549 47.968 12.7069 48.344 12.7069 48.76C12.7069 48.864 12.7029 48.968 12.6949 49.072C12.6949 49.168 12.6869 49.252 12.6709 49.324H8.73494C8.77494 49.948 8.96694 50.444 9.31094 50.812C9.66294 51.172 10.1189 51.352 10.6789 51.352C10.9589 51.352 11.2149 51.312 11.4469 51.232C11.6869 51.144 11.9149 51.032 12.1309 50.896L12.4789 51.544C12.2229 51.704 11.9389 51.844 11.6269 51.964C11.3149 52.084 10.9589 52.144 10.5589 52.144ZM8.72294 48.616H11.8429C11.8429 48.024 11.7149 47.576 11.4589 47.272C11.2109 46.96 10.8589 46.804 10.4029 46.804C10.1949 46.804 9.99494 46.844 9.80294 46.924C9.61894 47.004 9.45094 47.124 9.29894 47.284C9.14694 47.436 9.01894 47.624 8.91494 47.848C8.81894 48.072 8.75494 48.328 8.72294 48.616ZM15.1921 52.144C14.8161 52.144 14.5481 52.032 14.3881 51.808C14.2281 51.584 14.1481 51.256 14.1481 50.824V43.456H15.1321V50.896C15.1321 51.056 15.1601 51.168 15.2161 51.232C15.2721 51.296 15.3361 51.328 15.4081 51.328C15.4401 51.328 15.4681 51.328 15.4921 51.328C15.5241 51.328 15.5681 51.32 15.6241 51.304L15.7561 52.048C15.6921 52.08 15.6161 52.104 15.5281 52.12C15.4401 52.136 15.3281 52.144 15.1921 52.144ZM18.5507 52.144C18.0627 52.144 17.6547 52 17.3267 51.712C17.0067 51.424 16.8467 51.016 16.8467 50.488C16.8467 49.848 17.1307 49.36 17.6987 49.024C18.2667 48.68 19.1747 48.44 20.4227 48.304C20.4227 48.12 20.4027 47.94 20.3627 47.764C20.3307 47.588 20.2707 47.432 20.1827 47.296C20.0947 47.16 19.9707 47.052 19.8107 46.972C19.6587 46.884 19.4627 46.84 19.2227 46.84C18.8867 46.84 18.5707 46.904 18.2747 47.032C17.9787 47.16 17.7147 47.304 17.4827 47.464L17.0987 46.78C17.3707 46.604 17.7027 46.436 18.0947 46.276C18.4867 46.108 18.9187 46.024 19.3907 46.024C20.1027 46.024 20.6187 46.244 20.9387 46.684C21.2587 47.116 21.4187 47.696 21.4187 48.424V52H20.6027L20.5187 51.304H20.4827C20.2027 51.536 19.9027 51.736 19.5827 51.904C19.2627 52.064 18.9187 52.144 18.5507 52.144ZM18.8387 51.352C19.1187 51.352 19.3827 51.288 19.6307 51.16C19.8787 51.024 20.1427 50.828 20.4227 50.572V48.952C19.9347 49.016 19.5227 49.092 19.1867 49.18C18.8587 49.268 18.5907 49.372 18.3827 49.492C18.1827 49.612 18.0347 49.752 17.9387 49.912C17.8507 50.064 17.8067 50.232 17.8067 50.416C17.8067 50.752 17.9067 50.992 18.1067 51.136C18.3067 51.28 18.5507 51.352 18.8387 51.352ZM23.2535 52V46.168H24.0695L24.1535 47.008H24.1895C24.4695 46.728 24.7615 46.496 25.0655 46.312C25.3775 46.12 25.7375 46.024 26.1455 46.024C26.7615 46.024 27.2095 46.216 27.4895 46.6C27.7775 46.984 27.9215 47.552 27.9215 48.304V52H26.9375V48.436C26.9375 47.884 26.8495 47.488 26.6735 47.248C26.4975 47 26.2175 46.876 25.8335 46.876C25.5295 46.876 25.2615 46.952 25.0295 47.104C24.7975 47.256 24.5335 47.48 24.2375 47.776V52H23.2535ZM29.216 54.604C29.032 54.604 28.868 54.588 28.724 54.556C28.58 54.524 28.456 54.488 28.352 54.448L28.556 53.704C28.628 53.728 28.712 53.748 28.808 53.764C28.904 53.788 29.004 53.8 29.108 53.8C29.396 53.8 29.588 53.7 29.684 53.5C29.78 53.3 29.828 53.02 29.828 52.66V46.168H30.812V52.66C30.812 53.252 30.692 53.724 30.452 54.076C30.212 54.428 29.8 54.604 29.216 54.604ZM30.332 44.968C30.14 44.968 29.976 44.908 29.84 44.788C29.712 44.668 29.648 44.516 29.648 44.332C29.648 44.14 29.712 43.988 29.84 43.876C29.976 43.756 30.14 43.696 30.332 43.696C30.516 43.696 30.672 43.756 30.8 43.876C30.936 43.988 31.004 44.14 31.004 44.332C31.004 44.516 30.936 44.668 30.8 44.788C30.672 44.908 30.516 44.968 30.332 44.968ZM34.1249 52.144C33.6369 52.144 33.2289 52 32.9009 51.712C32.5809 51.424 32.4209 51.016 32.4209 50.488C32.4209 49.848 32.7049 49.36 33.2729 49.024C33.8409 48.68 34.7489 48.44 35.9969 48.304C35.9969 48.12 35.9769 47.94 35.9369 47.764C35.9049 47.588 35.8449 47.432 35.7569 47.296C35.6689 47.16 35.5449 47.052 35.3849 46.972C35.2329 46.884 35.0369 46.84 34.7969 46.84C34.4609 46.84 34.1449 46.904 33.8489 47.032C33.5529 47.16 33.2889 47.304 33.0569 47.464L32.6729 46.78C32.9449 46.604 33.2769 46.436 33.6689 46.276C34.0609 46.108 34.4929 46.024 34.9649 46.024C35.6769 46.024 36.1929 46.244 36.5129 46.684C36.8329 47.116 36.9929 47.696 36.9929 48.424V52H36.1769L36.0929 51.304H36.0569C35.7769 51.536 35.4769 51.736 35.1569 51.904C34.8369 52.064 34.4929 52.144 34.1249 52.144ZM34.4129 51.352C34.6929 51.352 34.9569 51.288 35.2049 51.16C35.4529 51.024 35.7169 50.828 35.9969 50.572V48.952C35.5089 49.016 35.0969 49.092 34.7609 49.18C34.4329 49.268 34.1649 49.372 33.9569 49.492C33.7569 49.612 33.6089 49.752 33.5129 49.912C33.4249 50.064 33.3809 50.232 33.3809 50.416C33.3809 50.752 33.4809 50.992 33.6809 51.136C33.8809 51.28 34.1249 51.352 34.4129 51.352Z" fill="#828282"/>
</svg>
