<svg width="46" height="55" viewBox="0 0 46 55" fill="none" xmlns="http://www.w3.org/2000/svg">
<circle cx="24" cy="18" r="18" fill="#2D9CDB"/>
<path d="M24 8C22.3277 8.00171 20.6826 8.42276 19.2151 9.22463C17.7477 10.0265 16.5047 11.1836 15.6 12.59C14.3276 14.5856 13.8041 16.9677 14.1228 19.3129C14.4415 21.658 15.5816 23.8142 17.3404 25.3978C19.0992 26.9815 21.3627 27.89 23.7283 27.9618C26.094 28.0336 28.4084 27.264 30.26 25.79C31.8715 24.4929 33.0411 22.7278 33.6076 20.7382C34.174 18.7485 34.1095 16.6321 33.4228 14.6807C32.7361 12.7292 31.4611 11.0388 29.7735 9.84228C28.0859 8.64578 26.0687 8.00212 24 8ZM26 10.26C27.3818 10.6177 28.6428 11.3386 29.6521 12.3479C30.6614 13.3572 31.3823 14.6182 31.74 16C30.068 16.0471 28.436 16.5222 27 17.38C26.2789 16.562 25.4746 15.8213 24.6 15.17C25.4811 13.681 25.9633 11.9898 26 10.26ZM24 10C23.9967 11.435 23.6026 12.8421 22.86 14.07C22.71 13.99 22.57 13.9 22.42 13.83C21.1324 13.1506 19.7555 12.6557 18.33 12.36C19.073 11.6125 19.9565 11.0192 20.9295 10.6142C21.9026 10.2092 22.946 10.0005 24 10ZM17 14.16C18.5684 14.3779 20.0874 14.865 21.49 15.6L21.62 15.68C20.8819 16.4174 20.0056 17.0019 19.0412 17.4C18.0768 17.7981 17.0433 18.002 16 18C16.0056 16.6563 16.3495 15.3357 17 14.16ZM22 25.74C20.6182 25.3823 19.3572 24.6614 18.3479 23.6521C17.3386 22.6428 16.6177 21.3818 16.26 20C17.5957 19.9703 18.9115 19.6707 20.1283 19.119C21.345 18.5673 22.4375 17.7751 23.34 16.79C24.0629 17.3244 24.7327 17.9272 25.34 18.59C24.3274 19.4929 23.5091 20.5924 22.9349 21.8216C22.3607 23.0508 22.0426 24.384 22 25.74ZM24 26C24.0022 24.9014 24.2306 23.815 24.671 22.8085C25.1115 21.802 25.7545 20.8971 26.56 20.15C26.62 20.23 26.68 20.3 26.73 20.38C27.568 21.6632 28.1896 23.0753 28.57 24.56C27.2316 25.4997 25.6354 26.0027 24 26ZM30.21 23C29.7757 21.677 29.1706 20.4163 28.41 19.25L28.2 19C29.3627 18.3532 30.6695 18.0093 32 18C31.9901 19.8219 31.3586 21.5858 30.21 23Z" fill="white"/>
<path d="M4.27306 52.144C3.77706 52.144 3.32106 52.048 2.90506 51.856C2.49706 51.664 2.14506 51.392 1.84906 51.04C1.55306 50.68 1.32106 50.248 1.15306 49.744C0.993063 49.232 0.913063 48.66 0.913063 48.028C0.913063 47.396 0.993063 46.832 1.15306 46.336C1.32106 45.832 1.55306 45.408 1.84906 45.064C2.14506 44.712 2.49706 44.444 2.90506 44.26C3.32106 44.076 3.77706 43.984 4.27306 43.984C4.76906 43.984 5.22106 44.08 5.62906 44.272C6.04506 44.456 6.40106 44.724 6.69706 45.076C7.00106 45.42 7.23306 45.844 7.39306 46.348C7.56106 46.844 7.64506 47.404 7.64506 48.028C7.64506 48.66 7.56106 49.232 7.39306 49.744C7.23306 50.248 7.00106 50.68 6.69706 51.04C6.40106 51.392 6.04506 51.664 5.62906 51.856C5.22106 52.048 4.76906 52.144 4.27306 52.144ZM4.27306 51.268C4.62506 51.268 4.94106 51.192 5.22106 51.04C5.50906 50.888 5.75306 50.672 5.95306 50.392C6.16106 50.104 6.32106 49.764 6.43306 49.372C6.54506 48.972 6.60106 48.524 6.60106 48.028C6.60106 47.54 6.54506 47.1 6.43306 46.708C6.32106 46.316 6.16106 45.984 5.95306 45.712C5.75306 45.44 5.50906 45.232 5.22106 45.088C4.94106 44.936 4.62506 44.86 4.27306 44.86C3.92106 44.86 3.60106 44.936 3.31306 45.088C3.03306 45.232 2.78906 45.44 2.58106 45.712C2.38106 45.984 2.22506 46.316 2.11306 46.708C2.00106 47.1 1.94506 47.54 1.94506 48.028C1.94506 48.524 2.00106 48.972 2.11306 49.372C2.22506 49.764 2.38106 50.104 2.58106 50.392C2.78906 50.672 3.03306 50.888 3.31306 51.04C3.60106 51.192 3.92106 51.268 4.27306 51.268ZM10.2858 52.144C9.90981 52.144 9.64181 52.032 9.48181 51.808C9.32181 51.584 9.24181 51.256 9.24181 50.824V43.456H10.2258V50.896C10.2258 51.056 10.2538 51.168 10.3098 51.232C10.3658 51.296 10.4298 51.328 10.5018 51.328C10.5338 51.328 10.5618 51.328 10.5858 51.328C10.6178 51.328 10.6618 51.32 10.7178 51.304L10.8498 52.048C10.7858 52.08 10.7098 52.104 10.6218 52.12C10.5338 52.136 10.4218 52.144 10.2858 52.144ZM13.6444 52.144C13.1564 52.144 12.7484 52 12.4204 51.712C12.1004 51.424 11.9404 51.016 11.9404 50.488C11.9404 49.848 12.2244 49.36 12.7924 49.024C13.3604 48.68 14.2684 48.44 15.5164 48.304C15.5164 48.12 15.4964 47.94 15.4564 47.764C15.4244 47.588 15.3644 47.432 15.2764 47.296C15.1884 47.16 15.0644 47.052 14.9044 46.972C14.7524 46.884 14.5564 46.84 14.3164 46.84C13.9804 46.84 13.6644 46.904 13.3684 47.032C13.0724 47.16 12.8084 47.304 12.5764 47.464L12.1924 46.78C12.4644 46.604 12.7964 46.436 13.1884 46.276C13.5804 46.108 14.0124 46.024 14.4844 46.024C15.1964 46.024 15.7124 46.244 16.0324 46.684C16.3524 47.116 16.5124 47.696 16.5124 48.424V52H15.6964L15.6124 51.304H15.5764C15.2964 51.536 14.9964 51.736 14.6764 51.904C14.3564 52.064 14.0124 52.144 13.6444 52.144ZM13.9324 51.352C14.2124 51.352 14.4764 51.288 14.7244 51.16C14.9724 51.024 15.2364 50.828 15.5164 50.572V48.952C15.0284 49.016 14.6164 49.092 14.2804 49.18C13.9524 49.268 13.6844 49.372 13.4764 49.492C13.2764 49.612 13.1284 49.752 13.0324 49.912C12.9444 50.064 12.9004 50.232 12.9004 50.416C12.9004 50.752 13.0004 50.992 13.2004 51.136C13.4004 51.28 13.6444 51.352 13.9324 51.352ZM18.3473 52V43.456H19.3313V45.784L19.2953 46.984C19.5753 46.72 19.8673 46.496 20.1713 46.312C20.4753 46.12 20.8313 46.024 21.2393 46.024C21.8553 46.024 22.3033 46.216 22.5833 46.6C22.8713 46.984 23.0153 47.552 23.0153 48.304V52H22.0313V48.436C22.0313 47.884 21.9433 47.488 21.7673 47.248C21.5913 47 21.3113 46.876 20.9273 46.876C20.6233 46.876 20.3553 46.952 20.1233 47.104C19.8913 47.256 19.6273 47.48 19.3313 47.776V52H18.3473ZM24.8746 52V46.168H25.6906L25.7746 47.224H25.8106C26.0106 46.856 26.2506 46.564 26.5306 46.348C26.8186 46.132 27.1306 46.024 27.4666 46.024C27.6986 46.024 27.9066 46.064 28.0906 46.144L27.8986 47.008C27.8026 46.976 27.7146 46.952 27.6346 46.936C27.5546 46.92 27.4546 46.912 27.3346 46.912C27.0866 46.912 26.8266 47.012 26.5546 47.212C26.2906 47.412 26.0586 47.76 25.8586 48.256V52H24.8746ZM30.0858 52.144C29.5978 52.144 29.1898 52 28.8618 51.712C28.5418 51.424 28.3818 51.016 28.3818 50.488C28.3818 49.848 28.6658 49.36 29.2338 49.024C29.8018 48.68 30.7098 48.44 31.9578 48.304C31.9578 48.12 31.9378 47.94 31.8978 47.764C31.8658 47.588 31.8058 47.432 31.7178 47.296C31.6298 47.16 31.5058 47.052 31.3458 46.972C31.1938 46.884 30.9978 46.84 30.7578 46.84C30.4218 46.84 30.1058 46.904 29.8098 47.032C29.5138 47.16 29.2498 47.304 29.0178 47.464L28.6338 46.78C28.9058 46.604 29.2378 46.436 29.6298 46.276C30.0218 46.108 30.4538 46.024 30.9258 46.024C31.6378 46.024 32.1538 46.244 32.4738 46.684C32.7938 47.116 32.9538 47.696 32.9538 48.424V52H32.1378L32.0538 51.304H32.0178C31.7378 51.536 31.4378 51.736 31.1178 51.904C30.7978 52.064 30.4538 52.144 30.0858 52.144ZM30.3738 51.352C30.6538 51.352 30.9178 51.288 31.1658 51.16C31.4138 51.024 31.6778 50.828 31.9578 50.572V48.952C31.4698 49.016 31.0578 49.092 30.7218 49.18C30.3938 49.268 30.1258 49.372 29.9178 49.492C29.7178 49.612 29.5698 49.752 29.4738 49.912C29.3858 50.064 29.3418 50.232 29.3418 50.416C29.3418 50.752 29.4418 50.992 29.6418 51.136C29.8418 51.28 30.0858 51.352 30.3738 51.352ZM36.7567 54.688C36.3967 54.688 36.0687 54.652 35.7727 54.58C35.4767 54.516 35.2207 54.416 35.0047 54.28C34.7967 54.144 34.6327 53.98 34.5127 53.788C34.4007 53.596 34.3447 53.372 34.3447 53.116C34.3447 52.868 34.4207 52.632 34.5727 52.408C34.7247 52.184 34.9327 51.98 35.1967 51.796V51.748C35.0527 51.66 34.9287 51.54 34.8247 51.388C34.7287 51.228 34.6807 51.032 34.6807 50.8C34.6807 50.552 34.7487 50.336 34.8847 50.152C35.0207 49.968 35.1647 49.824 35.3167 49.72V49.672C35.1247 49.512 34.9487 49.3 34.7887 49.036C34.6367 48.764 34.5607 48.452 34.5607 48.1C34.5607 47.78 34.6167 47.492 34.7287 47.236C34.8487 46.98 35.0087 46.764 35.2087 46.588C35.4087 46.404 35.6407 46.264 35.9047 46.168C36.1767 46.072 36.4607 46.024 36.7567 46.024C36.9167 46.024 37.0647 46.04 37.2007 46.072C37.3447 46.096 37.4727 46.128 37.5847 46.168H39.6127V46.924H38.4127C38.5487 47.06 38.6607 47.232 38.7487 47.44C38.8447 47.648 38.8927 47.876 38.8927 48.124C38.8927 48.436 38.8367 48.72 38.7247 48.976C38.6127 49.224 38.4607 49.436 38.2687 49.612C38.0767 49.78 37.8487 49.912 37.5847 50.008C37.3287 50.104 37.0527 50.152 36.7567 50.152C36.6127 50.152 36.4647 50.136 36.3127 50.104C36.1607 50.064 36.0167 50.012 35.8807 49.948C35.7767 50.036 35.6887 50.136 35.6167 50.248C35.5447 50.352 35.5087 50.484 35.5087 50.644C35.5087 50.828 35.5807 50.98 35.7247 51.1C35.8687 51.22 36.1407 51.28 36.5407 51.28H37.6687C38.3487 51.28 38.8567 51.392 39.1927 51.616C39.5367 51.832 39.7087 52.184 39.7087 52.672C39.7087 52.944 39.6407 53.2 39.5047 53.44C39.3687 53.688 39.1727 53.904 38.9167 54.088C38.6607 54.272 38.3487 54.416 37.9807 54.52C37.6207 54.632 37.2127 54.688 36.7567 54.688ZM36.7567 49.492C36.9247 49.492 37.0807 49.46 37.2247 49.396C37.3767 49.332 37.5087 49.24 37.6207 49.12C37.7407 49 37.8327 48.856 37.8967 48.688C37.9607 48.512 37.9927 48.316 37.9927 48.1C37.9927 47.668 37.8727 47.336 37.6327 47.104C37.3927 46.864 37.1007 46.744 36.7567 46.744C36.4127 46.744 36.1207 46.864 35.8807 47.104C35.6407 47.336 35.5207 47.668 35.5207 48.1C35.5207 48.316 35.5527 48.512 35.6167 48.688C35.6807 48.856 35.7687 49 35.8807 49.12C36.0007 49.24 36.1327 49.332 36.2767 49.396C36.4287 49.46 36.5887 49.492 36.7567 49.492ZM36.9007 54.004C37.1807 54.004 37.4327 53.968 37.6567 53.896C37.8887 53.832 38.0847 53.744 38.2447 53.632C38.4047 53.528 38.5287 53.404 38.6167 53.26C38.7047 53.116 38.7487 52.968 38.7487 52.816C38.7487 52.544 38.6487 52.356 38.4487 52.252C38.2487 52.148 37.9567 52.096 37.5727 52.096H36.5647C36.4527 52.096 36.3287 52.088 36.1927 52.072C36.0647 52.064 35.9367 52.04 35.8087 52C35.6007 52.152 35.4487 52.312 35.3527 52.48C35.2567 52.648 35.2087 52.816 35.2087 52.984C35.2087 53.296 35.3567 53.544 35.6527 53.728C35.9567 53.912 36.3727 54.004 36.9007 54.004ZM41.9921 52.144C41.5041 52.144 41.0961 52 40.7681 51.712C40.4481 51.424 40.2881 51.016 40.2881 50.488C40.2881 49.848 40.5721 49.36 41.1401 49.024C41.7081 48.68 42.6161 48.44 43.8641 48.304C43.8641 48.12 43.8441 47.94 43.8041 47.764C43.7721 47.588 43.7121 47.432 43.6241 47.296C43.5361 47.16 43.4121 47.052 43.2521 46.972C43.1001 46.884 42.9041 46.84 42.6641 46.84C42.3281 46.84 42.0121 46.904 41.7161 47.032C41.4201 47.16 41.1561 47.304 40.9241 47.464L40.5401 46.78C40.8121 46.604 41.1441 46.436 41.5361 46.276C41.9281 46.108 42.3601 46.024 42.8321 46.024C43.5441 46.024 44.0601 46.244 44.3801 46.684C44.7001 47.116 44.8601 47.696 44.8601 48.424V52H44.0441L43.9601 51.304H43.9241C43.6441 51.536 43.3441 51.736 43.0241 51.904C42.7041 52.064 42.3601 52.144 41.9921 52.144ZM42.2801 51.352C42.5601 51.352 42.8241 51.288 43.0721 51.16C43.3201 51.024 43.5841 50.828 43.8641 50.572V48.952C43.3761 49.016 42.9641 49.092 42.6281 49.18C42.3001 49.268 42.0321 49.372 41.8241 49.492C41.6241 49.612 41.4761 49.752 41.3801 49.912C41.2921 50.064 41.2481 50.232 41.2481 50.416C41.2481 50.752 41.3481 50.992 41.5481 51.136C41.7481 51.28 41.9921 51.352 42.2801 51.352Z" fill="#828282"/>
</svg>
