<svg width="49" height="55" viewBox="0 0 49 55" fill="none" xmlns="http://www.w3.org/2000/svg">
<circle cx="25" cy="18" r="18" fill="#9B51E0"/>
<path d="M32 15.5H31.68L30.43 12.38C30.2068 11.8253 29.8228 11.3499 29.3275 11.0149C28.8321 10.6799 28.248 10.5006 27.65 10.5H21.65C20.9553 10.498 20.2814 10.7372 19.7434 11.1767C19.2054 11.6162 18.8366 12.2288 18.7 12.91L18.18 15.5H18C17.2044 15.5 16.4413 15.8161 15.8787 16.3787C15.3161 16.9413 15 17.7043 15 18.5V21.5C15 21.7652 15.1054 22.0196 15.2929 22.2071C15.4804 22.3946 15.7348 22.5 16 22.5H17C17 23.2956 17.3161 24.0587 17.8787 24.6213C18.4413 25.1839 19.2044 25.5 20 25.5C20.7956 25.5 21.5587 25.1839 22.1213 24.6213C22.6839 24.0587 23 23.2956 23 22.5H27C27 23.2956 27.3161 24.0587 27.8787 24.6213C28.4413 25.1839 29.2044 25.5 30 25.5C30.7956 25.5 31.5587 25.1839 32.1213 24.6213C32.6839 24.0587 33 23.2956 33 22.5H34C34.2652 22.5 34.5196 22.3946 34.7071 22.2071C34.8946 22.0196 35 21.7652 35 21.5V18.5C35 17.7043 34.6839 16.9413 34.1213 16.3787C33.5587 15.8161 32.7956 15.5 32 15.5ZM26 12.5H27.65C27.8486 12.5018 28.0421 12.5627 28.206 12.6749C28.3698 12.7871 28.4965 12.9455 28.57 13.13L29.52 15.5H26V12.5ZM20.66 13.3C20.7068 13.0707 20.8324 12.8651 21.0151 12.7189C21.1979 12.5728 21.4261 12.4953 21.66 12.5H24V15.5H20.22L20.66 13.3ZM20 23.5C19.8022 23.5 19.6089 23.4413 19.4444 23.3315C19.28 23.2216 19.1518 23.0654 19.0761 22.8827C19.0004 22.7 18.9806 22.4989 19.0192 22.3049C19.0578 22.1109 19.153 21.9327 19.2929 21.7929C19.4327 21.653 19.6109 21.5578 19.8049 21.5192C19.9989 21.4806 20.2 21.5004 20.3827 21.5761C20.5654 21.6518 20.7216 21.78 20.8315 21.9444C20.9414 22.1089 21 22.3022 21 22.5C21 22.7652 20.8946 23.0196 20.7071 23.2071C20.5196 23.3946 20.2652 23.5 20 23.5ZM30 23.5C29.8022 23.5 29.6089 23.4413 29.4444 23.3315C29.28 23.2216 29.1518 23.0654 29.0761 22.8827C29.0004 22.7 28.9806 22.4989 29.0192 22.3049C29.0578 22.1109 29.153 21.9327 29.2929 21.7929C29.4327 21.653 29.6109 21.5578 29.8049 21.5192C29.9989 21.4806 30.2 21.5004 30.3827 21.5761C30.5654 21.6518 30.7216 21.78 30.8315 21.9444C30.9414 22.1089 31 22.3022 31 22.5C31 22.7652 30.8946 23.0196 30.7071 23.2071C30.5196 23.3946 30.2652 23.5 30 23.5ZM33 20.5H32.22C31.9388 20.1906 31.5961 19.9435 31.2138 19.7743C30.8315 19.6052 30.418 19.5178 30 19.5178C29.582 19.5178 29.1685 19.6052 28.7862 19.7743C28.4039 19.9435 28.0612 20.1906 27.78 20.5H22.22C21.9388 20.1906 21.5961 19.9435 21.2138 19.7743C20.8315 19.6052 20.418 19.5178 20 19.5178C19.582 19.5178 19.1685 19.6052 18.7862 19.7743C18.4039 19.9435 18.0612 20.1906 17.78 20.5H17V18.5C17 18.2348 17.1054 17.9804 17.2929 17.7929C17.4804 17.6054 17.7348 17.5 18 17.5H32C32.2652 17.5 32.5196 17.6054 32.7071 17.7929C32.8946 17.9804 33 18.2348 33 18.5V20.5Z" fill="white"/>
<path d="M2.83114 52V44.968H0.455141V44.128H6.21514V44.968H3.83914V52H2.83114ZM6.98595 52V46.168H7.80195L7.88595 47.224H7.92195C8.12195 46.856 8.36195 46.564 8.64195 46.348C8.92995 46.132 9.24195 46.024 9.57795 46.024C9.80995 46.024 10.018 46.064 10.202 46.144L10.01 47.008C9.91395 46.976 9.82595 46.952 9.74595 46.936C9.66595 46.92 9.56595 46.912 9.44595 46.912C9.19795 46.912 8.93795 47.012 8.66595 47.212C8.40195 47.412 8.16995 47.76 7.96995 48.256V52H6.98595ZM12.1971 52.144C11.7091 52.144 11.3011 52 10.9731 51.712C10.6531 51.424 10.4931 51.016 10.4931 50.488C10.4931 49.848 10.7771 49.36 11.3451 49.024C11.9131 48.68 12.8211 48.44 14.0691 48.304C14.0691 48.12 14.0491 47.94 14.0091 47.764C13.9771 47.588 13.9171 47.432 13.8291 47.296C13.7411 47.16 13.6171 47.052 13.4571 46.972C13.3051 46.884 13.1091 46.84 12.8691 46.84C12.5331 46.84 12.2171 46.904 11.9211 47.032C11.6251 47.16 11.3611 47.304 11.1291 47.464L10.7451 46.78C11.0171 46.604 11.3491 46.436 11.7411 46.276C12.1331 46.108 12.5651 46.024 13.0371 46.024C13.7491 46.024 14.2651 46.244 14.5851 46.684C14.9051 47.116 15.0651 47.696 15.0651 48.424V52H14.2491L14.1651 51.304H14.1291C13.8491 51.536 13.5491 51.736 13.2291 51.904C12.9091 52.064 12.5651 52.144 12.1971 52.144ZM12.4851 51.352C12.7651 51.352 13.0291 51.288 13.2771 51.16C13.5251 51.024 13.7891 50.828 14.0691 50.572V48.952C13.5811 49.016 13.1691 49.092 12.8331 49.18C12.5051 49.268 12.2371 49.372 12.0291 49.492C11.8291 49.612 11.6811 49.752 11.5851 49.912C11.4971 50.064 11.4531 50.232 11.4531 50.416C11.4531 50.752 11.5531 50.992 11.7531 51.136C11.9531 51.28 12.1971 51.352 12.4851 51.352ZM16.9 52V46.168H17.716L17.8 47.008H17.836C18.116 46.728 18.408 46.496 18.712 46.312C19.024 46.12 19.384 46.024 19.792 46.024C20.408 46.024 20.856 46.216 21.136 46.6C21.424 46.984 21.568 47.552 21.568 48.304V52H20.584V48.436C20.584 47.884 20.496 47.488 20.32 47.248C20.144 47 19.864 46.876 19.48 46.876C19.176 46.876 18.908 46.952 18.676 47.104C18.444 47.256 18.18 47.48 17.884 47.776V52H16.9ZM24.9865 52.144C24.5705 52.144 24.1745 52.068 23.7985 51.916C23.4225 51.764 23.0945 51.572 22.8145 51.34L23.3065 50.68C23.5625 50.888 23.8225 51.056 24.0865 51.184C24.3585 51.312 24.6705 51.376 25.0225 51.376C25.4065 51.376 25.6945 51.288 25.8865 51.112C26.0785 50.936 26.1745 50.72 26.1745 50.464C26.1745 50.312 26.1345 50.18 26.0545 50.068C25.9745 49.956 25.8705 49.86 25.7425 49.78C25.6225 49.692 25.4825 49.616 25.3225 49.552C25.1625 49.488 25.0025 49.424 24.8425 49.36C24.6345 49.288 24.4265 49.208 24.2185 49.12C24.0105 49.024 23.8225 48.912 23.6545 48.784C23.4945 48.648 23.3625 48.492 23.2585 48.316C23.1545 48.14 23.1025 47.928 23.1025 47.68C23.1025 47.448 23.1465 47.232 23.2345 47.032C23.3305 46.824 23.4625 46.648 23.6305 46.504C23.8065 46.352 24.0185 46.236 24.2665 46.156C24.5145 46.068 24.7945 46.024 25.1065 46.024C25.4745 46.024 25.8105 46.088 26.1145 46.216C26.4265 46.344 26.6945 46.5 26.9185 46.684L26.4505 47.308C26.2505 47.156 26.0425 47.032 25.8265 46.936C25.6105 46.84 25.3745 46.792 25.1185 46.792C24.7505 46.792 24.4785 46.876 24.3025 47.044C24.1345 47.212 24.0505 47.408 24.0505 47.632C24.0505 47.768 24.0865 47.888 24.1585 47.992C24.2305 48.088 24.3265 48.176 24.4465 48.256C24.5665 48.328 24.7025 48.396 24.8545 48.46C25.0145 48.516 25.1785 48.576 25.3465 48.64C25.5545 48.72 25.7625 48.804 25.9705 48.892C26.1865 48.98 26.3785 49.092 26.5465 49.228C26.7145 49.356 26.8505 49.516 26.9545 49.708C27.0665 49.9 27.1225 50.132 27.1225 50.404C27.1225 50.644 27.0745 50.868 26.9785 51.076C26.8905 51.284 26.7545 51.468 26.5705 51.628C26.3945 51.788 26.1705 51.912 25.8985 52C25.6345 52.096 25.3305 52.144 24.9865 52.144ZM28.4899 54.46V46.168H29.3059L29.3899 46.84H29.4259C29.6899 46.616 29.9779 46.424 30.2899 46.264C30.6099 46.104 30.9419 46.024 31.2859 46.024C31.6619 46.024 31.9939 46.096 32.2819 46.24C32.5699 46.376 32.8099 46.576 33.0019 46.84C33.1939 47.096 33.3379 47.408 33.4339 47.776C33.5379 48.136 33.5899 48.544 33.5899 49C33.5899 49.496 33.5219 49.94 33.3859 50.332C33.2499 50.716 33.0659 51.044 32.8339 51.316C32.6019 51.588 32.3339 51.796 32.0299 51.94C31.7259 52.076 31.4059 52.144 31.0699 52.144C30.7979 52.144 30.5259 52.084 30.2539 51.964C29.9899 51.844 29.7219 51.68 29.4499 51.472L29.4739 52.492V54.46H28.4899ZM30.9019 51.316C31.1419 51.316 31.3619 51.264 31.5619 51.16C31.7699 51.048 31.9459 50.896 32.0899 50.704C32.2419 50.504 32.3579 50.26 32.4379 49.972C32.5259 49.684 32.5699 49.36 32.5699 49C32.5699 48.68 32.5419 48.388 32.4859 48.124C32.4299 47.86 32.3379 47.636 32.2099 47.452C32.0899 47.26 31.9299 47.112 31.7299 47.008C31.5379 46.904 31.3059 46.852 31.0339 46.852C30.7859 46.852 30.5339 46.92 30.2779 47.056C30.0299 47.192 29.7619 47.388 29.4739 47.644V50.704C29.7379 50.928 29.9939 51.088 30.2419 51.184C30.4899 51.272 30.7099 51.316 30.9019 51.316ZM37.4141 52.144C37.0541 52.144 36.7101 52.076 36.3821 51.94C36.0621 51.804 35.7781 51.608 35.5301 51.352C35.2821 51.088 35.0821 50.768 34.9301 50.392C34.7861 50.008 34.7141 49.576 34.7141 49.096C34.7141 48.608 34.7861 48.176 34.9301 47.8C35.0821 47.416 35.2821 47.092 35.5301 46.828C35.7781 46.564 36.0621 46.364 36.3821 46.228C36.7101 46.092 37.0541 46.024 37.4141 46.024C37.7741 46.024 38.1141 46.092 38.4341 46.228C38.7621 46.364 39.0501 46.564 39.2981 46.828C39.5461 47.092 39.7421 47.416 39.8861 47.8C40.0381 48.176 40.1141 48.608 40.1141 49.096C40.1141 49.576 40.0381 50.008 39.8861 50.392C39.7421 50.768 39.5461 51.088 39.2981 51.352C39.0501 51.608 38.7621 51.804 38.4341 51.94C38.1141 52.076 37.7741 52.144 37.4141 52.144ZM37.4141 51.328C37.6621 51.328 37.8901 51.276 38.0981 51.172C38.3061 51.06 38.4821 50.908 38.6261 50.716C38.7781 50.516 38.8941 50.28 38.9741 50.008C39.0541 49.736 39.0941 49.432 39.0941 49.096C39.0941 48.76 39.0541 48.456 38.9741 48.184C38.8941 47.904 38.7781 47.664 38.6261 47.464C38.4821 47.264 38.3061 47.112 38.0981 47.008C37.8901 46.896 37.6621 46.84 37.4141 46.84C37.1661 46.84 36.9381 46.896 36.7301 47.008C36.5221 47.112 36.3421 47.264 36.1901 47.464C36.0461 47.664 35.9341 47.904 35.8541 48.184C35.7741 48.456 35.7341 48.76 35.7341 49.096C35.7341 49.432 35.7741 49.736 35.8541 50.008C35.9341 50.28 36.0461 50.516 36.1901 50.716C36.3421 50.908 36.5221 51.06 36.7301 51.172C36.9381 51.276 37.1661 51.328 37.4141 51.328ZM41.65 52V46.168H42.466L42.55 47.224H42.586C42.786 46.856 43.026 46.564 43.306 46.348C43.594 46.132 43.906 46.024 44.242 46.024C44.474 46.024 44.682 46.064 44.866 46.144L44.674 47.008C44.578 46.976 44.49 46.952 44.41 46.936C44.33 46.92 44.23 46.912 44.11 46.912C43.862 46.912 43.602 47.012 43.33 47.212C43.066 47.412 42.834 47.76 42.634 48.256V52H41.65ZM47.6462 52.144C47.3342 52.144 47.0702 52.096 46.8542 52C46.6462 51.904 46.4742 51.772 46.3382 51.604C46.2102 51.436 46.1182 51.232 46.0622 50.992C46.0062 50.752 45.9782 50.488 45.9782 50.2V46.972H45.1142V46.228L46.0262 46.168L46.1462 44.536H46.9742V46.168H48.5462V46.972H46.9742V50.212C46.9742 50.572 47.0382 50.852 47.1662 51.052C47.3022 51.244 47.5382 51.34 47.8742 51.34C47.9782 51.34 48.0902 51.324 48.2102 51.292C48.3302 51.26 48.4382 51.224 48.5342 51.184L48.7262 51.928C48.5662 51.984 48.3902 52.032 48.1982 52.072C48.0142 52.12 47.8302 52.144 47.6462 52.144Z" fill="#828282"/>
</svg>
